<?xml version="1.0" encoding="utf-8"?>
<!-- Generator: Adobe Illustrator 27.0.1, SVG Export Plug-In . SVG Version: 6.00 Build 0)  -->
<svg version="1.1" id="_レイヤー_2" xmlns="http://www.w3.org/2000/svg" xmlns:xlink="http://www.w3.org/1999/xlink" x="0px"
	 y="0px" viewBox="0 0 128.3 129.3" style="enable-background:new 0 0 128.3 129.3;" xml:space="preserve">
<style type="text/css">
	.st0{fill:url(#SVGID_1_);}
	.st1{fill:url(#SVGID_00000156547826027002788750000007529496366856733346_);}
	.st2{fill:url(#SVGID_00000122682455831035347340000014108852057997370271_);}
	.st3{fill:url(#SVGID_00000121995361965358218370000010210159651030401427_);}
	.st4{fill:url(#SVGID_00000027588123276465889850000014956020794252039570_);}
	.st5{fill:url(#SVGID_00000147927371691102190090000012930073805939440020_);}
	.st6{fill:url(#SVGID_00000085233861122004578340000002346017153760904096_);}
	.st7{fill:url(#SVGID_00000183951748933002276280000017033887796199970714_);}
	.st8{fill:url(#SVGID_00000016049166115979535500000008527991369479777959_);}
	.st9{fill:url(#SVGID_00000001660818038957399480000011926838342274604683_);}
	.st10{fill:url(#SVGID_00000075869809671657243120000005436345874695753907_);}
	.st11{fill:url(#SVGID_00000027562405437227884150000007940934355590869909_);}
	.st12{fill:url(#SVGID_00000171705806099956154900000014254109529006512050_);}
	.st13{fill:url(#SVGID_00000019658309828348950560000008537208953138401923_);}
	.st14{fill:url(#SVGID_00000108270762731471666970000006617943437856799396_);}
	.st15{fill:url(#SVGID_00000072262898565387671820000003932987301590192313_);}
	.st16{fill:url(#SVGID_00000116951573453988122450000002982839199886540718_);}
	.st17{fill:url(#SVGID_00000146498581498886222840000006407198459645722791_);}
	.st18{fill:url(#SVGID_00000013883821191332608910000010182160231443557512_);}
	.st19{fill:url(#SVGID_00000103222604810242407980000004001547370273901965_);}
	.st20{fill:url(#SVGID_00000077292162359238157820000000069323857462560174_);}
	.st21{fill:url(#SVGID_00000169527156068234175670000001730902471221186710_);}
	.st22{fill:url(#SVGID_00000107581211634394375440000007536024236558336952_);}
	.st23{fill:url(#SVGID_00000087386711597922306820000002884410567649476272_);}
</style>
<g id="_レイヤー_1-2">
	<g>
		
			<linearGradient id="SVGID_1_" gradientUnits="userSpaceOnUse" x1="130.8356" y1="-95.6047" x2="-38.7644" y2="64.6753" gradientTransform="matrix(1 0 0 1 0 99.98)">
			<stop  offset="0" style="stop-color:#6D6E6F"/>
			<stop  offset="0.9976" style="stop-color:#090506"/>
		</linearGradient>
		<path class="st0" d="M124,72.4c-0.8,0.3-1.6,0.8-2.1,1.6c-0.1,0.2-0.2,0.3-0.3,0.5c0.2-1.6,0.4-3.2,0.6-4.8v0
			c1,0.2,3.1,0.5,4.9-1.6c0.6-1.1,0.8-1.8,0.8-2.5c0-0.7,0-1.2,0.5-1.8c-0.6,0-2.5,0.4-4,1.3c-0.8,0.4-1.4,1-1.9,1.8
			c-0.1,0.1-0.1,0.2-0.2,0.4c0.1-1.6,0-3.2-0.1-4.7c0.5,0,1.2,0,2.1-0.2s1.8-0.8,2.5-2c0.9-2.2-0.1-3,0.8-4.3
			c-0.6,0.1-2.3,0.7-3.8,1.7c-0.7,0.5-1.3,1.2-1.6,2c-0.1,0.1-0.1,0.3-0.1,0.4c-0.2-1.6-0.4-3.2-0.7-4.8c0.9-0.1,2.9-0.3,4.2-2.8
			c0.6-2.3-0.5-2.9,0.2-4.2c-0.6,0.2-2.2,1-3.4,2.2c-0.8,0.7-1.3,1.6-1.4,2.6c-0.4-1.6-0.8-3.2-1.3-4.8v0c0.9-0.2,2.8-0.6,3.7-3.2
			c0.4-2.3-0.8-2.7-0.3-4.2c-0.5,0.2-2.1,1.2-3.1,2.5c-0.6,0.8-1.1,1.7-1.1,2.7c-0.4-1-0.7-2-1.2-2.9c-0.2-0.6-0.5-1.1-0.8-1.7
			c0,0,0,0,0,0c0.8-0.3,2.7-1,3.2-3.5c0.1-2.3-1.1-2.6-0.8-4c-0.5,0.3-1.8,1.4-2.7,2.8c-0.5,0.8-0.9,1.8-0.8,2.7
			c-0.8-1.5-1.6-2.9-2.5-4.3c0.8-0.4,2.5-1.3,2.7-3.8c-0.2-2.2-1.4-2.3-1.3-3.8c-0.4,0.3-1.6,1.6-2.3,3c-0.4,0.9-0.6,1.8-0.3,2.7
			c-0.9-1.4-2-2.8-3-4c0.7-0.5,2.3-1.5,2.2-4c-0.2-1.1-0.6-1.6-0.9-2.1c-0.4-0.4-0.7-0.8-0.7-1.5c-0.4,0.4-1.4,1.7-1.9,3.2
			c-0.3,0.9-0.4,1.8-0.1,2.6c-1.1-1.3-2.3-2.5-3.5-3.6c0.3-0.3,0.8-0.7,1.2-1.4c0.4-0.7,0.7-1.6,0.4-2.8c-0.7-2-1.8-1.9-2-3.2
			c-0.3,0.4-1.2,1.8-1.5,3.4c-0.2,0.8-0.2,1.5,0.1,2.2c0,0.1,0.1,0.2,0.2,0.3c-1.3-1.1-2.6-2.2-3.9-3.2c0.6-0.6,1.7-1.9,1.1-4.2
			c-0.2-0.5-0.4-0.8-0.7-1.1c-0.2-0.2-0.5-0.4-0.7-0.6c-0.4-0.3-0.8-0.6-1-1.2c-0.3,0.4-0.9,1.9-1,3.4c-0.1,0.7,0.1,1.5,0.4,2.1
			c0.1,0.1,0.1,0.2,0.2,0.3c-1.1-0.7-2.2-1.5-3.3-2.1c0.1-0.9,0-2.3-1.7-3.2c-1.9-0.6-2.5,0.4-3.6-0.2c0,0.5,0.3,1.9,1.1,3
			c0.7,1,1.9,1.6,3.8,0.8c0.4,0.3,0.9,0.5,1.3,0.8c-0.8-0.1-1.5,0.2-2.2,0.6c-1.3,0.8-2.2,2-2.5,2.5c1.2-0.3,1.3,0.7,3.1,0.7
			c1.1-0.2,1.9-0.7,2.4-1.1c0.5-0.5,0.8-1,1-1.3c1.3,0.9,2.6,1.9,3.8,2.9c-0.8-0.2-1.6,0-2.3,0.3c-1.4,0.6-2.5,1.8-2.8,2.3
			c1.2-0.2,1.3,0.8,3.1,1c2.2-0.1,3.3-1.4,3.8-2.1c1.2,1.1,2.3,2.2,3.4,3.3c-0.1,0-0.1,0-0.2-0.1c-0.7-0.2-1.5-0.1-2.2,0.1
			c-1.5,0.5-2.8,1.5-3.1,1.9c1.3,0,1.1,1,3,1.4c2.2,0.2,3.5-0.9,4.1-1.6c1.1,1.2,2,2.4,3,3.7c-0.7-0.4-1.6-0.5-2.4-0.3
			c-1.6,0.3-3,1.2-3.4,1.6c1.3,0.1,1,1.1,2.9,1.8c2.2,0.4,3.7-0.5,4.4-1.2c0.9,1.3,1.7,2.6,2.5,3.9c0,0-0.1-0.1-0.1-0.1
			c-0.7-0.4-1.5-0.5-2.3-0.4c-1.6,0.1-3.2,0.9-3.7,1.2c0.7,0.1,0.9,0.5,1.2,0.8c0.3,0.4,0.7,0.8,1.5,1.3c2.2,0.7,3.8-0.1,4.6-0.6
			c0.6,1.2,1.2,2.4,1.7,3.6c0.1,0.2,0.2,0.4,0.3,0.6c-0.1,0-0.1-0.1-0.2-0.1c-0.6-0.5-1.4-0.7-2.3-0.8c-1.6-0.1-3.3,0.5-3.8,0.7
			c1.3,0.4,0.7,1.4,2.4,2.5c2.1,1,3.9,0.4,4.7,0c0.5,1.5,1,2.9,1.4,4.4c-0.6-0.7-1.4-1.1-2.3-1.2c-1.7-0.3-3.5,0.1-4,0.3
			c0.6,0.3,0.8,0.7,1,1.1c0.2,0.5,0.4,1,1.2,1.7c2,1.3,3.9,0.9,4.8,0.5c0.3,1.5,0.6,3,0.9,4.5c0-0.1-0.1-0.1-0.1-0.2
			c-0.5-0.7-1.3-1.1-2.1-1.3c-1.7-0.5-3.5-0.3-4.1-0.2c0.6,0.4,0.7,0.8,0.8,1.3c0.2,0.5,0.3,1.1,1,1.9c1.9,1.6,3.9,1.4,4.8,1.2
			c0,0.3,0.1,0.5,0.1,0.8c0.1,1.2,0.2,2.5,0.2,3.7c0-0.1-0.1-0.2-0.1-0.3c-0.4-0.7-1.2-1.3-1.9-1.6c-1.6-0.7-3.5-0.8-4.1-0.8
			c1.1,0.9,0.2,1.7,1.4,3.4c1.7,1.8,3.7,1.9,4.7,1.8c-0.1,1.5-0.2,3-0.3,4.5c-0.3-0.9-1-1.7-1.8-2.2c-1.5-0.9-3.5-1.3-4.1-1.3
			c1.1,1.1,0,1.7,1,3.7c0.8,1.1,1.7,1.7,2.5,2c0.8,0.3,1.5,0.4,2,0.4c-0.2,1.5-0.5,2.9-0.9,4.4c-0.2-1-0.8-1.8-1.6-2.4
			c-1.4-1.1-3.3-1.7-3.9-1.8c0.9,1.2-0.2,1.7,0.6,3.8c1.3,2.3,3.3,2.9,4.3,3c-0.4,1.4-0.8,2.8-1.3,4.2c0-0.1,0-0.2,0-0.3
			c-0.2-0.9-0.7-1.7-1.3-2.3c-1.3-1.3-3.2-2.1-3.8-2.3c0.4,0.7,0.3,1.1,0.1,1.6c-0.1,0.5-0.2,1.2,0,2.3c1,2.5,3,3.3,4,3.6
			c-0.6,1.3-1.2,2.7-1.8,4c0.1-1-0.4-2.1-1.1-2.9c-1.2-1.5-2.9-2.5-3.5-2.8c0.6,1.4-0.7,1.7-0.3,4c0.7,2.6,2.6,3.7,3.6,4.1
			c-0.3,0.5-0.6,1-0.8,1.5c-0.5,0.8-0.9,1.5-1.4,2.3c0-0.1,0-0.3,0.1-0.4c0.1-0.9-0.2-1.8-0.7-2.7c-1-1.6-2.7-2.9-3.3-3.2
			c0.2,0.8,0,1.2-0.2,1.7c-0.3,0.5-0.6,1.1-0.6,2.3c0.4,2.7,2.2,4.1,3.2,4.6c-0.9,1.2-1.8,2.3-2.7,3.4c0-0.1,0.1-0.2,0.1-0.4
			c0.2-0.9,0-1.9-0.4-2.8c-0.8-1.8-2.4-3.2-2.9-3.7c0.1,0.8-0.1,1.2-0.4,1.7c-0.3,0.5-0.7,1-0.9,2.2c0.1,1.4,0.5,2.6,1,3.4
			c0.5,0.8,1.1,1.3,1.6,1.7c-1,1-2,2-3.1,2.9c0.5-1,0.4-2.1,0.1-3.2c-0.6-1.9-1.9-3.6-2.4-4.1c0.1,1.6-1.2,1.4-1.8,3.7
			c-0.3,2.8,1.1,4.7,2,5.4c-1.1,0.9-2.2,1.7-3.4,2.5c0.1-0.1,0.1-0.2,0.2-0.3c0.4-0.9,0.5-1.9,0.3-2.9c-0.3-2-1.5-3.8-1.9-4.4
			c-0.1,0.8-0.4,1.1-0.9,1.5c-0.4,0.4-0.9,0.9-1.4,2c-0.7,2.8,0.5,4.9,1.2,5.8c-0.2,0.1-0.3,0.2-0.5,0.3c-1.1,0.6-2.1,1.2-3.2,1.7
			c0.8-0.9,1-2.1,1-3.2c-0.1-2-1-4.1-1.3-4.7c-0.4,1.6-1.6,1-2.8,3.2c-1.1,2.7-0.2,4.9,0.4,5.9c-0.8,0.3-1.6,0.7-2.4,1
			c-0.5,0.2-1,0.4-1.5,0.6c0.9-0.8,1.3-2,1.4-3.1c0.2-2.1-0.4-4.3-0.7-4.9c-0.5,1.6-1.8,0.9-3.4,2.9c-1.4,2.7-0.7,5-0.2,6.1
			c-1.3,0.4-2.7,0.8-4,1.1c1-0.7,1.5-1.8,1.8-3c0.4-2.1,0-4.3-0.2-5c-0.8,1.6-1.9,0.7-3.6,2.6c-1.7,2.5-1.3,4.9-0.9,6.1
			c-2.2,0.4-4.3,0.6-6.6,0.8c-1.4,0.1-2.6,0.5-3.5,1c-1-0.5-2.1-0.9-3.5-1c-2.2-0.1-4.4-0.4-6.5-0.8c0.4-1.2,0.8-3.6-0.9-6.1
			c-1.7-1.9-2.8-1-3.6-2.6c-0.2,0.7-0.6,3-0.2,5c0.2,1.2,0.8,2.3,1.8,3c-1.3-0.3-2.7-0.7-4-1.1c0.5-1.1,1.2-3.4-0.2-6.1
			c-1.5-2.1-2.8-1.3-3.4-2.9c-0.3,0.7-0.9,2.8-0.7,4.9c0.1,1.2,0.5,2.3,1.4,3.1c-0.5-0.2-1-0.4-1.5-0.6c-0.8-0.3-1.6-0.6-2.4-1
			c0.6-1,1.5-3.2,0.5-5.9c-1.2-2.2-2.4-1.6-2.8-3.2c-0.3,0.6-1.3,2.7-1.3,4.7c0,1.1,0.2,2.3,1,3.2c-1.1-0.6-2.2-1.1-3.2-1.7
			c-0.2-0.1-0.3-0.2-0.5-0.3c0.7-0.9,1.9-2.9,1.2-5.8c-0.5-1.1-1-1.6-1.4-2c-0.4-0.4-0.8-0.7-0.9-1.5c-0.4,0.6-1.6,2.4-1.9,4.4
			c-0.2,1-0.1,2,0.3,2.9c0,0.1,0.1,0.2,0.2,0.3c-1.1-0.8-2.3-1.6-3.4-2.5c0.8-0.8,2.2-2.6,2-5.4c-0.6-2.3-1.9-2.1-1.8-3.7
			c-0.5,0.5-1.8,2.2-2.4,4.1c-0.4,1.1-0.4,2.2,0.1,3.2c-1-0.9-2.1-1.9-3-2.9c0.4-0.3,1.1-0.9,1.6-1.7c0.5-0.8,1-1.9,1-3.4
			c-0.1-1.2-0.5-1.7-0.9-2.2c-0.3-0.5-0.6-0.9-0.4-1.7c-0.5,0.4-2.1,1.9-2.9,3.7c-0.4,0.9-0.6,1.8-0.4,2.8c0,0.1,0.1,0.2,0.1,0.4
			c-1-1.1-1.9-2.2-2.7-3.4c1-0.5,2.7-1.8,3.2-4.6c0-1.2-0.3-1.8-0.6-2.3c-0.3-0.5-0.5-0.9-0.2-1.7c-0.6,0.3-2.3,1.6-3.3,3.2
			c-0.5,0.8-0.8,1.7-0.7,2.7c0,0.1,0,0.3,0,0.4c-0.5-0.8-1-1.5-1.4-2.3c-0.3-0.5-0.6-1-0.8-1.5c1-0.4,2.9-1.5,3.6-4.1
			c0.3-2.3-0.9-2.6-0.3-4c-0.6,0.3-2.4,1.3-3.5,2.8c-0.6,0.8-1.1,1.8-1.1,2.9c-0.6-1.3-1.2-2.7-1.8-4c1-0.3,3-1.1,4-3.6
			c0.2-1.1,0.1-1.8,0-2.3s-0.2-1,0.1-1.6c-0.6,0.2-2.4,1-3.8,2.3c-0.7,0.7-1.2,1.4-1.4,2.3c0,0.1,0,0.2,0,0.3
			c-0.5-1.4-0.9-2.8-1.3-4.2c1-0.2,3.1-0.7,4.3-3c0.7-2.1-0.3-2.6,0.6-3.8c-0.6,0.1-2.5,0.7-3.9,1.8C9,77.2,8.4,78,8.2,79
			c-0.3-1.4-0.6-2.9-0.9-4.4c0.5,0,1.2-0.1,2-0.4c0.8-0.3,1.7-1,2.5-2c1-2-0.1-2.6,1-3.7c-0.6,0.1-2.5,0.4-4.1,1.3
			C8,70.4,7.3,71.1,7,72c-0.2-1.5-0.3-3-0.3-4.5c1,0.1,3,0,4.7-1.8c1.3-1.8,0.4-2.5,1.4-3.4c-0.6,0-2.5,0-4.1,0.8
			c-0.8,0.4-1.5,0.9-2,1.6c-0.1,0.1-0.1,0.2-0.1,0.3c0-1.2,0.1-2.5,0.2-3.7c0-0.3,0.1-0.5,0.1-0.8c1,0.2,2.9,0.4,4.8-1.2
			c0.7-0.8,0.9-1.4,1-1.9s0.2-0.9,0.8-1.3c-0.6-0.1-2.4-0.3-4.1,0.2c-0.8,0.2-1.6,0.7-2.1,1.3c0,0.1-0.1,0.1-0.1,0.2
			c0.2-1.5,0.5-3,0.9-4.5c0.9,0.3,2.8,0.7,4.8-0.5c0.8-0.7,1-1.2,1.2-1.7c0.2-0.5,0.4-0.8,1-1.1c-0.6-0.2-2.3-0.6-4-0.3
			c-0.9,0.2-1.8,0.5-2.3,1.2c0.4-1.5,0.9-3,1.4-4.4c0.9,0.5,2.6,1.1,4.7,0c1.7-1.1,1.2-2.1,2.4-2.5c-0.5-0.2-2.2-0.8-3.8-0.7
			c-0.8,0-1.6,0.2-2.3,0.8c-0.1,0-0.1,0.1-0.1,0.1c0.1-0.2,0.2-0.4,0.3-0.6c0.5-1.2,1.1-2.4,1.7-3.6c0.8,0.5,2.4,1.4,4.6,0.6
			c0.9-0.5,1.2-0.9,1.5-1.3c0.3-0.4,0.5-0.7,1.2-0.8c-0.5-0.3-2-1.1-3.7-1.2c-0.8-0.1-1.6,0-2.3,0.4c0,0-0.1,0.1-0.1,0.1
			c0.8-1.3,1.6-2.7,2.5-3.9c0.7,0.6,2.2,1.6,4.4,1.2c1.8-0.7,1.5-1.7,2.9-1.8c-0.4-0.3-1.9-1.3-3.5-1.6c-0.8-0.2-1.7-0.1-2.4,0.3
			c1-1.3,1.9-2.5,3-3.7c0.6,0.7,1.9,1.8,4.1,1.6c1.9-0.4,1.8-1.5,3-1.4c-0.4-0.4-1.7-1.5-3.1-1.9c-0.7-0.2-1.5-0.3-2.2-0.1
			c0,0-0.1,0-0.2,0.1c1.1-1.2,2.2-2.3,3.4-3.3c0.5,0.7,1.7,2,3.8,2.1c1.8-0.3,1.9-1.2,3.1-1c-0.3-0.4-1.5-1.6-2.8-2.3
			c-0.8-0.4-1.5-0.5-2.3-0.3c1.2-1,2.5-2,3.8-2.9c0.2,0.4,0.5,0.9,1,1.3c0.5,0.5,1.3,0.9,2.5,1.1c1.9,0,2-1,3.1-0.7
			c-0.3-0.4-1.2-1.7-2.5-2.5c-0.7-0.4-1.4-0.7-2.2-0.6c0.4-0.3,0.9-0.5,1.3-0.8c2,0.7,3.1,0.1,3.8-0.9c0.7-1,1-2.5,1-3
			c-1,0.6-1.7-0.3-3.5,0.2c-1.7,0.8-1.8,2.3-1.7,3.2c-1.1,0.7-2.2,1.4-3.3,2.1c0.1-0.1,0.1-0.2,0.2-0.3c0.3-0.7,0.4-1.4,0.4-2.1
			c-0.1-1.5-0.8-3-1-3.4c-0.2,0.6-0.5,0.9-1,1.2c-0.2,0.2-0.5,0.3-0.7,0.6c-0.2,0.3-0.5,0.6-0.7,1.1c-0.6,2.3,0.5,3.6,1.1,4.2
			c-1.4,1-2.7,2.1-3.9,3.2c0-0.1,0.1-0.2,0.1-0.3c0.3-0.7,0.2-1.5,0.1-2.2c-0.3-1.5-1.1-3-1.5-3.4c-0.2,1.4-1.3,1.2-2,3.2
			c-0.2,1.2,0.1,2.1,0.5,2.8c0.4,0.7,0.9,1.1,1.2,1.4c-1.2,1.2-2.4,2.4-3.5,3.6c0.3-0.9,0.2-1.8-0.1-2.6c-0.5-1.5-1.5-2.8-1.9-3.2
			c0,0.7-0.3,1-0.7,1.5c-0.4,0.4-0.7,1-1,2.1c-0.1,2.5,1.5,3.6,2.2,4c-1.1,1.3-2.1,2.7-3,4.1c0.2-0.9,0-1.9-0.4-2.7
			c-0.7-1.5-1.9-2.7-2.3-3c0.1,1.4-1.1,1.6-1.3,3.8c0.3,2.6,1.9,3.5,2.7,3.8c-0.9,1.4-1.7,2.8-2.5,4.3c0.1-1-0.2-1.9-0.8-2.7
			C11,35.4,9.6,34.3,9.1,34c0.3,1.4-0.8,1.7-0.8,4c0.5,2.5,2.4,3.3,3.2,3.5c0,0,0,0,0,0c-0.3,0.6-0.5,1.1-0.8,1.7
			c-0.4,1-0.8,1.9-1.2,2.9c0-1-0.5-1.9-1.1-2.7c-1-1.3-2.6-2.3-3.1-2.5c0.5,1.4-0.7,1.8-0.3,4.2c0.9,2.5,2.8,3,3.7,3.2l0,0
			c-0.5,1.6-1,3.2-1.3,4.8c-0.1-1-0.7-1.9-1.4-2.6c-1.2-1.2-2.9-2-3.5-2.2c0.7,1.4-0.5,2,0.2,4.2c1.2,2.5,3.3,2.7,4.2,2.8
			c-0.3,1.6-0.6,3.2-0.7,4.8c0-0.2-0.1-0.3-0.1-0.4c-0.3-0.8-0.9-1.4-1.6-2c-1.4-1.1-3.2-1.6-3.8-1.7c0.8,1.3-0.2,2.1,0.8,4.3
			c0.7,1.2,1.7,1.7,2.5,2c0.8,0.3,1.6,0.2,2.1,0.2c-0.1,1.6-0.1,3.2-0.1,4.7c-0.1-0.1-0.1-0.3-0.2-0.4c-0.5-0.8-1.2-1.3-1.9-1.8
			c-1.5-0.9-3.4-1.2-4-1.3c0.5,0.6,0.5,1.1,0.5,1.8c0,0.6,0.1,1.4,0.8,2.5c1.9,2.2,4,1.8,4.9,1.6v0c0.1,1.6,0.3,3.2,0.6,4.8
			c-0.1-0.2-0.2-0.3-0.3-0.5c-0.5-0.7-1.3-1.2-2.1-1.6c-1.7-0.7-3.6-0.8-4.2-0.8c0.6,0.6,0.7,1.1,0.8,1.7s0.2,1.4,1.1,2.4
			c2.2,1.9,4.2,1.3,5.2,1.1v0c0.2,0.9,0.4,1.8,0.6,2.7c0.2,0.7,0.3,1.4,0.5,2c-0.1-0.2-0.2-0.3-0.4-0.5c-0.6-0.7-1.5-1.1-2.3-1.3
			c-1.8-0.5-3.8-0.4-4.4-0.3c1.4,1,0.6,2.1,2.4,3.9C6,85.1,8.1,84.3,9,83.9v0c0.5,1.5,1,3,1.6,4.5c-0.1-0.1-0.2-0.3-0.4-0.4
			c-0.7-0.6-1.6-0.9-2.6-1c-1.9-0.3-3.8,0-4.4,0.2c1.4,0.9,0.9,2.1,2.9,3.7c1.3,0.8,2.5,0.8,3.4,0.6c0.9-0.2,1.6-0.6,2.1-0.8
			c0,0,0,0,0-0.1c0.6,1.4,1.3,2.8,2.1,4.2c-0.1-0.1-0.3-0.2-0.4-0.3c-0.8-0.5-1.8-0.7-2.7-0.8c-1.9-0.1-3.9,0.5-4.5,0.8
			c0.8,0.3,1.1,0.8,1.4,1.4c0.4,0.6,0.8,1.3,2,2c2.8,1.2,4.7-0.2,5.5-0.9c0,0,0,0,0-0.1c0.8,1.3,1.7,2.6,2.6,3.9
			c-0.2-0.1-0.3-0.2-0.5-0.3c-0.9-0.4-1.8-0.5-2.8-0.4c-1.9,0.1-3.9,1-4.4,1.3c0.9,0.2,1.2,0.7,1.6,1.3c0.4,0.6,1,1.2,2.2,1.8
			c3,0.8,4.7-0.8,5.5-1.6c0-0.1,0-0.1,0-0.1c1,1.2,2.1,2.5,3.2,3.6c-0.2-0.1-0.4-0.2-0.6-0.3c-0.9-0.3-1.9-0.3-2.9-0.1
			c-2,0.4-3.8,1.5-4.3,1.9c0.9,0.2,1.3,0.6,1.8,1.1c0.5,0.5,1.1,1.2,2.5,1.5c3.2,0.4,4.7-1.4,5.3-2.3c0-0.1,0-0.1-0.1-0.1
			c0.9,0.9,1.8,1.7,2.8,2.5c0.3,0.2,0.5,0.4,0.8,0.7c-0.2-0.1-0.5-0.2-0.7-0.2c-1-0.2-2,0-2.9,0.3c-1.9,0.7-3.6,2-4.1,2.5
			c1.8,0.1,1.9,1.5,4.7,2.1c3.3,0,4.5-2.1,5.1-3.1c0,0,0-0.1-0.1-0.1c1.2,0.9,2.5,1.8,3.8,2.6c-0.2-0.1-0.4-0.1-0.6-0.1
			c-1-0.1-2,0.3-2.9,0.7c-1.8,0.9-3.4,2.4-3.8,3c1.8-0.1,2.1,1.3,5,1.5c1.6-0.2,2.7-0.9,3.4-1.7c0.7-0.8,1.1-1.6,1.3-2.1
			c0,0-0.1-0.1-0.1-0.1c0.9,0.5,1.8,1,2.8,1.4c0.5,0.2,0.9,0.4,1.3,0.6c-0.2,0-0.5,0-0.7,0c-0.5,0.1-1,0.2-1.5,0.4
			c-0.5,0.2-0.9,0.4-1.4,0.7c-1.7,1.2-3.1,2.9-3.4,3.6c0.9-0.2,1.5,0.1,2.2,0.4c0.7,0.3,1.6,0.6,3.1,0.4c1.6-0.4,2.6-1.2,3.2-2.1
			c0.6-0.9,0.9-1.7,1-2.3c0,0-0.1-0.1-0.1-0.1c0.2,0.1,0.3,0.1,0.5,0.2c1.3,0.5,2.5,0.9,3.8,1.3c-1.3,0-2.4,0.6-3.4,1.5
			c-1.6,1.4-2.7,3.4-3,4.1c1.7-0.7,2.3,0.7,5.2,0.2c3.2-1.2,3.7-3.8,3.8-4.9c0,0-0.1-0.1-0.1-0.1c0.8,0.2,1.7,0.4,2.5,0.6
			c0.7,0.2,1.3,0.3,2,0.4c-1.3,0.2-2.4,0.9-3.3,1.9c-1.5,1.6-2.4,3.7-2.6,4.4c1.8-0.9,2.6,0.6,5.5-0.4c3.1-1.7,3.2-4.3,3.2-5.4
			c0,0-0.1,0-0.2-0.1c1.5,0.2,3.1,0.4,4.6,0.4c1.2,0.1,2.2,0.3,3,0.8c-1.1,0.7-1.9,1.6-2.7,2.4c-0.5,0.5-1,1-1.5,1.4l0.2,0.5
			c0.5-0.4,1-0.9,1.5-1.5c0.9-0.9,1.8-1.9,2.9-2.6c1.2,0.7,2.1,1.6,2.9,2.6c0.5,0.5,1,1,1.5,1.5l0.2-0.5c-0.5-0.4-1-0.9-1.5-1.4
			c-0.8-0.8-1.6-1.7-2.7-2.4c0.8-0.4,1.8-0.7,3-0.8c1.5-0.1,3.1-0.2,4.6-0.4c-0.1,0-0.1,0-0.2,0.1c0,1.2,0.1,3.8,3.2,5.4
			c2.9,0.9,3.7-0.5,5.5,0.4c-0.2-0.7-1.1-2.8-2.6-4.4c-0.9-1-2-1.8-3.3-1.9c0.7-0.1,1.3-0.2,1.9-0.4c0.8-0.2,1.7-0.4,2.5-0.6
			c0,0-0.1,0.1-0.1,0.1c0.2,1.1,0.6,3.7,3.8,4.9c2.9,0.6,3.5-0.8,5.2-0.2c-0.3-0.7-1.4-2.7-3-4.1c-1-0.9-2.1-1.5-3.4-1.5
			c1.3-0.4,2.6-0.9,3.8-1.3c0.2-0.1,0.3-0.1,0.5-0.2c0,0-0.1,0.1-0.1,0.1c0.1,0.6,0.4,1.4,1,2.3c0.6,0.9,1.6,1.7,3.2,2.1
			c1.5,0.1,2.3-0.2,3.1-0.4c0.7-0.3,1.3-0.6,2.2-0.4c-0.3-0.6-1.7-2.4-3.4-3.6c-0.4-0.3-0.9-0.5-1.4-0.7c-0.5-0.2-1-0.3-1.5-0.4
			c-0.2,0-0.4,0-0.7,0c0.4-0.2,0.9-0.4,1.3-0.6c0.9-0.5,1.9-0.9,2.8-1.4c0,0-0.1,0.1-0.1,0.1c0.2,0.5,0.6,1.3,1.3,2.1
			c0.7,0.7,1.8,1.5,3.4,1.7c2.9-0.2,3.2-1.6,5-1.5c-0.4-0.6-1.9-2.1-3.8-3c-0.9-0.5-1.9-0.8-2.9-0.7c-0.2,0-0.4,0.1-0.6,0.1
			c1.3-0.8,2.6-1.7,3.8-2.6c0,0,0,0.1-0.1,0.1c0.6,1,1.8,3,5.1,3.1c2.8-0.6,2.8-2,4.7-2.1c-0.5-0.5-2.2-1.8-4.1-2.5
			c-1-0.3-2-0.5-2.9-0.3c-0.2,0.1-0.4,0.1-0.7,0.2c0.3-0.2,0.6-0.4,0.8-0.7c0.9-0.8,1.9-1.6,2.8-2.5c0,0-0.1,0.1-0.1,0.1
			c0.7,0.9,2.1,2.7,5.3,2.3c1.4-0.4,1.9-1,2.5-1.5c0.5-0.5,0.9-0.9,1.8-1.1c-0.5-0.4-2.4-1.5-4.3-1.9c-1-0.2-2-0.2-2.9,0.1
			c-0.2,0.1-0.4,0.2-0.7,0.3c1.1-1.2,2.2-2.4,3.2-3.6c0,0,0,0.1-0.1,0.1c0.8,0.8,2.4,2.4,5.5,1.6c1.2-0.6,1.8-1.2,2.2-1.8
			c0.4-0.6,0.8-1,1.6-1.3c-0.6-0.3-2.5-1.2-4.4-1.3c-1-0.1-1.9,0-2.8,0.4c-0.2,0.1-0.3,0.2-0.5,0.3c0.9-1.3,1.8-2.6,2.6-3.9
			c0,0,0,0,0,0.1c0.8,0.6,2.7,2,5.5,0.9c1.1-0.7,1.6-1.4,2-2c0.3-0.6,0.6-1.1,1.4-1.4c-0.6-0.3-2.6-0.9-4.5-0.8
			c-0.9,0.1-1.9,0.2-2.7,0.8c-0.2,0.1-0.3,0.2-0.4,0.3c0.8-1.4,1.4-2.8,2.1-4.2c0,0,0,0,0,0.1c0.4,0.3,1.2,0.7,2.1,0.8
			c0.9,0.2,2.1,0.1,3.4-0.6c2-1.7,1.5-2.9,2.9-3.7c-0.6-0.2-2.6-0.5-4.4-0.2c-0.9,0.2-1.9,0.5-2.6,1c-0.2,0.1-0.3,0.3-0.4,0.4
			c0.6-1.5,1.1-2.9,1.6-4.5v0c0.9,0.4,2.9,1.3,5.4-0.4c1.8-1.8,1-3,2.4-3.9c-0.6-0.1-2.6-0.2-4.4,0.3c-0.9,0.2-1.7,0.7-2.3,1.3
			c-0.1,0.2-0.2,0.3-0.4,0.5c0.2-0.7,0.4-1.3,0.5-2c0.2-0.9,0.4-1.8,0.6-2.7v0c0.9,0.3,3,0.9,5.2-1.1c0.8-1,0.9-1.7,1.1-2.4
			c0.1-0.6,0.2-1.2,0.8-1.7C127.6,71.7,125.6,71.8,124,72.4L124,72.4L124,72.4z"/>
		
			<linearGradient id="SVGID_00000176731278914101913850000017602095554969794188_" gradientUnits="userSpaceOnUse" x1="103.9961" y1="-124.0041" x2="-65.5938" y2="36.2859" gradientTransform="matrix(1 0 0 1 0 99.98)">
			<stop  offset="0" style="stop-color:#6D6E6F"/>
			<stop  offset="0.9976" style="stop-color:#090506"/>
		</linearGradient>
		<path style="fill:url(#SVGID_00000176731278914101913850000017602095554969794188_);" d="M55.3,17.8c0.8,1.8,1.5,3.1,0.7,4.9
			c6.2,0.2,10.7,0.2,16.9,0c-0.8-1.8,0-3.2,0.7-4.9c3.3-2.2,4.2-4.6,4.3-6c0.2-2-0.6-3.9-2.1-5c-1.4-1-3.1-1.2-4.7-0.6
			c0,0-0.1,0-0.1,0c-1.3-0.7-3-0.7-4.3-0.2c-0.1,0-0.2,0.1-0.2,0.1c-0.4-0.2-0.9-0.3-1.3-0.3l0-0.1c0.2-0.6,0.8-1.2,1.4-1.5L67,4
			c0.5-0.3,0.5-0.7,0-1l-0.3-0.2c-0.5-0.3-1.2-1-1.4-1.5l-0.4-0.9c-0.2-0.6-0.6-0.6-0.8,0l-0.4,0.9c-0.2,0.6-0.8,1.2-1.4,1.5L62.1,3
			c-0.5,0.3-0.5,0.7,0,1l0.3,0.2c0.5,0.3,1.2,1,1.4,1.5l0,0.1c-0.5,0-0.9,0.1-1.3,0.3c-0.1,0-0.2-0.1-0.2-0.1
			c-1.4-0.6-3-0.5-4.3,0.2c0,0,0,0-0.1,0c-1.6-0.6-3.4-0.4-4.7,0.6c-1.6,1.1-2.4,3-2.1,5C51.1,13.2,52,15.6,55.3,17.8L55.3,17.8
			L55.3,17.8z M75.2,7.7c1.2,0.9,1.8,2.3,1.6,3.9c-0.3,2.2-2.1,4.3-5.1,5.9c-0.8,0-1.5,0-2.3-0.1c0.6-0.8,1.4-1.7,2.3-2.8
			c1.4-1.6,2-3.8,1.6-5.5c-0.2-0.8-0.5-1.5-1-2C73.4,6.9,74.4,7.1,75.2,7.7z M70.6,7.2c0.9,0.4,1.5,1.2,1.7,2.1
			c0.3,1.4-0.3,3.2-1.4,4.5c-1.3,1.5-2.3,2.7-3,3.5c-0.4,0-0.8,0-1.2,0c2.8-7.5,1.7-9.5,0.9-10.4C68.6,6.7,69.7,6.8,70.6,7.2z
			 M62.6,7.6L62.6,7.6L62.6,7.6c0.3-0.4,0.7-0.5,1.3-0.6c0.2,0,0.4,0,0.6,0c0.1,0,0.1,0,0.2,0c0.2,0,0.4,0,0.6,0
			c0.5,0.1,0.9,0.2,1.2,0.5l0,0.1l0.1,0.1c0.5,0.6,1.8,2-1.2,9.8h-1.6C60.8,9.6,62,8.2,62.6,7.6L62.6,7.6L62.6,7.6z M56.8,9.4
			c0.2-1,0.8-1.7,1.7-2.2c0.9-0.4,2-0.5,3-0.2c-0.8,0.9-1.8,2.9,0.9,10.4c-0.4,0-0.8,0-1.3,0c-0.7-0.9-1.7-2.1-3-3.5
			C57,12.6,56.5,10.8,56.8,9.4C56.8,9.4,56.8,9.4,56.8,9.4z M53.8,7.7c0.8-0.6,1.8-0.8,2.8-0.6c-0.5,0.6-0.9,1.2-1,2
			c-0.4,1.8,0.3,3.9,1.6,5.5c0.9,1.1,1.7,2,2.3,2.8c-0.8,0-1.5,0-2.3,0.1c-3-1.6-4.8-3.7-5.1-5.9C52,10.1,52.6,8.6,53.8,7.7
			L53.8,7.7L53.8,7.7z"/>
		
			<linearGradient id="SVGID_00000042011776588768245850000013394249646879784633_" gradientUnits="userSpaceOnUse" x1="112.2001" y1="-115.3199" x2="-57.3899" y2="44.9701" gradientTransform="matrix(1 0 0 1 0 99.98)">
			<stop  offset="0" style="stop-color:#6D6E6F"/>
			<stop  offset="0.9976" style="stop-color:#090506"/>
		</linearGradient>
		<path style="fill:url(#SVGID_00000042011776588768245850000013394249646879784633_);" d="M48.5,45.4c2-1.2,3.4-3.1,4.3-5.7
			c0.6,2.1,1.9,4.3,4.3,5.7c0.2-0.4,0.8-1,1.1-1.2c-4.3-2.5-4.6-6.7-4.6-8.9h-4v1.4h2.6c0,0.4,0.1,0.8,0.2,1.2l-0.7-0.1
			c-0.6,3-2,5.3-4.4,6.5C47.6,44.6,48.2,45.1,48.5,45.4C48.5,45.4,48.5,45.4,48.5,45.4z"/>
		
			<linearGradient id="SVGID_00000066511816719959958390000001930110084950782901_" gradientUnits="userSpaceOnUse" x1="116.0091" y1="-111.3009" x2="-53.5909" y2="48.9891" gradientTransform="matrix(1 0 0 1 0 99.98)">
			<stop  offset="0" style="stop-color:#6D6E6F"/>
			<stop  offset="0.9976" style="stop-color:#090506"/>
		</linearGradient>
		<path style="fill:url(#SVGID_00000066511816719959958390000001930110084950782901_);" d="M58.9,41.2c0.2,0.3,0.5,0.9,0.7,1.3
			c0.5-0.3,1-0.7,1.4-1.1v4h1.4v-4.4c0.4,0.4,0.8,0.9,1,1.2l0.8-1.1c-0.2-0.2-1.1-1-1.7-1.5c0.6-0.8,1-1.6,1.4-2.5l-0.8-0.5
			l-0.2,0.1h-0.5v-2.1H61v2.1h-1.6V38h2.8C61.4,39.4,60.2,40.6,58.9,41.2L58.9,41.2L58.9,41.2z"/>
		
			<linearGradient id="SVGID_00000155848848511401821080000017439897072214132877_" gradientUnits="userSpaceOnUse" x1="118.9594" y1="-108.1707" x2="-50.6306" y2="52.1093" gradientTransform="matrix(1 0 0 1 0 99.98)">
			<stop  offset="0" style="stop-color:#6D6E6F"/>
			<stop  offset="0.9976" style="stop-color:#090506"/>
		</linearGradient>
		<polygon style="fill:url(#SVGID_00000155848848511401821080000017439897072214132877_);" points="66.1,34.7 66.1,38.2 63.9,38.2 
			63.9,39.5 66.1,39.5 66.1,43.8 63.5,43.8 63.5,45.1 70,45.1 70,43.8 67.6,43.8 67.6,39.5 69.7,39.5 69.7,38.2 67.6,38.2 
			67.6,34.7 		"/>
		
			<linearGradient id="SVGID_00000067938454121404161880000012630508292894687136_" gradientUnits="userSpaceOnUse" x1="124.0541" y1="-102.7862" x2="-45.5459" y2="57.5038" gradientTransform="matrix(1 0 0 1 0 99.98)">
			<stop  offset="0" style="stop-color:#6D6E6F"/>
			<stop  offset="0.9976" style="stop-color:#090506"/>
		</linearGradient>
		<path style="fill:url(#SVGID_00000067938454121404161880000012630508292894687136_);" d="M77,34.6c-0.3,0.5-0.8,1.2-1.2,1.7
			c-0.2-0.2-0.4-0.3-0.6-0.4l-0.8,0.9c0.7,0.5,1.5,1.1,2,1.6c-0.2,0.2-0.3,0.3-0.5,0.4c-0.7,0-1.3,0-1.8,0l0.1,1.2l2.3-0.1
			c-0.7,0.9-1.6,1.6-2.6,2.1c0.3,0.2,0.7,0.8,0.9,1c0.3-0.2,0.7-0.5,1-0.7c0.3,0.4,0.6,0.7,0.9,1c-0.8,0.4-1.8,0.7-2.8,0.9
			c0.2,0.3,0.5,0.8,0.7,1.2c1.2-0.3,2.3-0.7,3.3-1.2c0.9,0.6,2,1,3.2,1.2c0.2-0.4,0.5-0.9,0.8-1.2c-1.1-0.2-2.1-0.5-2.9-0.8
			c0.8-0.7,1.4-1.5,1.8-2.5l-0.9-0.4l-0.2,0h-2.1c0.2-0.2,0.3-0.5,0.4-0.7c0.8,0,1.5,0,2.3-0.1c0.2,0.3,0.3,0.5,0.4,0.8l1.2-0.7
			c-0.3-0.7-1.1-1.8-1.8-2.5L79,38c0.2,0.2,0.4,0.5,0.6,0.7l-2.1,0c1-0.8,2-1.8,2.8-2.7l-1.2-0.7c-0.5,0.6-1.2,1.4-1.9,2
			c-0.2-0.2-0.4-0.4-0.7-0.6c0.5-0.5,1.1-1.1,1.6-1.7L77,34.6L77,34.6L77,34.6z M76.7,41.6H79c-0.3,0.4-0.7,0.8-1.1,1.1
			C77.4,42.4,77,42.1,76.7,41.6L76.7,41.6L76.7,41.6z"/>
		
			<linearGradient id="SVGID_00000048489223567108931420000015656143756314096528_" gradientUnits="userSpaceOnUse" x1="119.1854" y1="-107.9349" x2="-50.4146" y2="52.3451" gradientTransform="matrix(1 0 0 1 0 99.98)">
			<stop  offset="0" style="stop-color:#6D6E6F"/>
			<stop  offset="0.9976" style="stop-color:#090506"/>
		</linearGradient>
		<path style="fill:url(#SVGID_00000048489223567108931420000015656143756314096528_);" d="M74.3,35.1l-1.2-0.5
			c-0.5,0.8-1.4,1.7-2.3,2.3c0.2,0.2,0.5,0.7,0.7,1C72.5,37.2,73.6,36.1,74.3,35.1L74.3,35.1L74.3,35.1z"/>
		
			<linearGradient id="SVGID_00000012471887932445368780000000462419188098994816_" gradientUnits="userSpaceOnUse" x1="122.1984" y1="-104.7417" x2="-47.4016" y2="55.5383" gradientTransform="matrix(1 0 0 1 0 99.98)">
			<stop  offset="0" style="stop-color:#6D6E6F"/>
			<stop  offset="0.9976" style="stop-color:#090506"/>
		</linearGradient>
		<path style="fill:url(#SVGID_00000012471887932445368780000000462419188098994816_);" d="M71.5,41.3c0.3-0.2,0.6-0.5,0.9-0.9v5
			h1.3v-6.5c0.3-0.5,0.6-0.9,0.9-1.4l-1.2-0.5c-0.6,1.1-1.6,2.2-2.6,3C71,40.4,71.3,41,71.5,41.3L71.5,41.3L71.5,41.3z"/>
		
			<linearGradient id="SVGID_00000165213855024162928810000013615728154408207768_" gradientUnits="userSpaceOnUse" x1="117.2464" y1="-109.9838" x2="-52.3536" y2="50.2962" gradientTransform="matrix(1 0 0 1 0 99.98)">
			<stop  offset="0" style="stop-color:#6D6E6F"/>
			<stop  offset="0.9976" style="stop-color:#090506"/>
		</linearGradient>
		
			<rect x="39.7" y="59.6" style="fill:url(#SVGID_00000165213855024162928810000013615728154408207768_);" width="6.6" height="1.3"/>
		
			<linearGradient id="SVGID_00000100354642678696460330000017946638922813336964_" gradientUnits="userSpaceOnUse" x1="115.6607" y1="-111.6593" x2="-53.9394" y2="48.6207" gradientTransform="matrix(1 0 0 1 0 99.98)">
			<stop  offset="0" style="stop-color:#6D6E6F"/>
			<stop  offset="0.9976" style="stop-color:#090506"/>
		</linearGradient>
		<path style="fill:url(#SVGID_00000100354642678696460330000017946638922813336964_);" d="M41.4,59.4l1.2-0.3
			c0-0.6-0.3-1.5-0.6-2.2l-1.2,0.3C41.1,57.9,41.4,58.9,41.4,59.4L41.4,59.4L41.4,59.4z"/>
		
			<linearGradient id="SVGID_00000076592495887739475420000015329484485665960346_" gradientUnits="userSpaceOnUse" x1="112.9103" y1="-114.5697" x2="-56.6797" y2="45.7203" gradientTransform="matrix(1 0 0 1 0 99.98)">
			<stop  offset="0" style="stop-color:#6D6E6F"/>
			<stop  offset="0.9976" style="stop-color:#090506"/>
		</linearGradient>
		
			<rect x="40.2" y="50.7" style="fill:url(#SVGID_00000076592495887739475420000015329484485665960346_);" width="5.9" height="1.3"/>
		
			<linearGradient id="SVGID_00000075157425325431027140000016576505881877052049_" gradientUnits="userSpaceOnUse" x1="112.2899" y1="-115.2301" x2="-57.3101" y2="45.0599" gradientTransform="matrix(1 0 0 1 0 99.98)">
			<stop  offset="0" style="stop-color:#6D6E6F"/>
			<stop  offset="0.9976" style="stop-color:#090506"/>
		</linearGradient>
		<path style="fill:url(#SVGID_00000075157425325431027140000016576505881877052049_);" d="M38.8,52.9h1.3v-1.2h-2.5
			c0.1-0.4,0.2-0.8,0.2-1.1l-1.3-0.2c-0.2,1.3-0.7,2.7-1.2,3.5c0.3,0.1,0.9,0.4,1.2,0.6c0.2-0.4,0.5-0.9,0.7-1.5h0.3v1.8h-2V56h1.9
			c-0.2,1.4-0.6,3-2,4.2c0.2,0.2,0.8,0.7,1,1c1-0.9,1.6-2,2-3.2c0.4,0.6,0.9,1.2,1.2,1.7l0.9-1.2c-0.2-0.3-1.3-1.5-1.7-2
			c0-0.2,0-0.3,0-0.4h1.5v-1.3h-1.4L38.8,52.9L38.8,52.9L38.8,52.9z"/>
		
			<linearGradient id="SVGID_00000127005097559110628710000015272953418282785154_" gradientUnits="userSpaceOnUse" x1="116.8812" y1="-110.3687" x2="-52.7088" y2="49.9213" gradientTransform="matrix(1 0 0 1 0 99.98)">
			<stop  offset="0" style="stop-color:#6D6E6F"/>
			<stop  offset="0.9976" style="stop-color:#090506"/>
		</linearGradient>
		<path style="fill:url(#SVGID_00000127005097559110628710000015272953418282785154_);" d="M44.6,59.5c0.3-0.6,0.6-1.5,0.9-2.3
			l-1.4-0.3c-0.1,0.7-0.4,1.7-0.7,2.4L44.6,59.5L44.6,59.5z"/>
		
			<linearGradient id="SVGID_00000098924702756212118190000001420134798795682712_" gradientUnits="userSpaceOnUse" x1="114.6442" y1="-112.7355" x2="-54.9458" y2="47.5545" gradientTransform="matrix(1 0 0 1 0 99.98)">
			<stop  offset="0" style="stop-color:#6D6E6F"/>
			<stop  offset="0.9976" style="stop-color:#090506"/>
		</linearGradient>
		<path style="fill:url(#SVGID_00000098924702756212118190000001420134798795682712_);" d="M45.8,52.9h-5.1v3.8h5.1V52.9z
			 M44.4,55.5h-2.5v-1.4h2.5V55.5z"/>
		
			<linearGradient id="SVGID_00000037695126335246491430000006938855788222234777_" gradientUnits="userSpaceOnUse" x1="120.8787" y1="-106.1414" x2="-48.7214" y2="54.1386" gradientTransform="matrix(1 0 0 1 0 99.98)">
			<stop  offset="0" style="stop-color:#6D6E6F"/>
			<stop  offset="0.9976" style="stop-color:#090506"/>
		</linearGradient>
		<path style="fill:url(#SVGID_00000037695126335246491430000006938855788222234777_);" d="M52.6,60.1c0,0.1-0.1,0.1-0.1,0.2
			c0.3,0.1,0.9,0.5,1.1,0.8c0.6-1,0.9-2.5,1-3.9h1.8v2.3c0,0.2-0.1,0.2-0.2,0.2c-0.2,0-0.7,0-1.2,0c0.2,0.3,0.3,1,0.4,1.3
			c0.9,0,1.5,0,1.8-0.2s0.5-0.6,0.5-1.3v-8.8h-4.3V55c0,1.5-0.1,3.5-0.7,4.9c-0.3-0.5-0.8-1.1-1.2-1.6l-1,0.6c0.5,0.5,1,1.3,1.2,1.8
			L52.6,60.1L52.6,60.1L52.6,60.1z M54.7,52h1.7v1.4h-1.7V52z M54.7,55v-0.4h1.7V56h-1.7C54.7,55.6,54.7,55.3,54.7,55L54.7,55
			L54.7,55z"/>
		
			<linearGradient id="SVGID_00000012451011836235522960000001009758973726117263_" gradientUnits="userSpaceOnUse" x1="117.9543" y1="-109.2355" x2="-51.6457" y2="51.0445" gradientTransform="matrix(1 0 0 1 0 99.98)">
			<stop  offset="0" style="stop-color:#6D6E6F"/>
			<stop  offset="0.9976" style="stop-color:#090506"/>
		</linearGradient>
		<path style="fill:url(#SVGID_00000012451011836235522960000001009758973726117263_);" d="M47.3,57.1v1.2H53v-1.2h-0.7v-4.3H53
			v-1.2h-0.8v-1.2H51v1.2h-1.4v-1.2h-1.2v1.2h-0.9v1.2h0.9v4.3H47.3z M49.6,52.8H51v0.7h-1.4V52.8z M49.6,54.5H51v0.7h-1.4V54.5z
			 M49.6,56.3H51v0.8h-1.4V56.3z"/>
		
			<linearGradient id="SVGID_00000168112127172411981830000005805205264542787498_" gradientUnits="userSpaceOnUse" x1="119.6284" y1="-107.4617" x2="-49.9616" y2="52.8283" gradientTransform="matrix(1 0 0 1 0 99.98)">
			<stop  offset="0" style="stop-color:#6D6E6F"/>
			<stop  offset="0.9976" style="stop-color:#090506"/>
		</linearGradient>
		<path style="fill:url(#SVGID_00000168112127172411981830000005805205264542787498_);" d="M50,58.8l-1.3-0.4
			c-0.3,0.7-0.9,1.4-1.5,1.9c0.3,0.2,0.8,0.6,1.1,0.8C48.9,60.5,49.6,59.6,50,58.8C50,58.8,50,58.8,50,58.8z"/>
		
			<linearGradient id="SVGID_00000177442186713789316210000009489773065345485487_" gradientUnits="userSpaceOnUse" x1="125.7122" y1="-101.0277" x2="-43.8878" y2="59.2523" gradientTransform="matrix(1 0 0 1 0 99.98)">
			<stop  offset="0" style="stop-color:#6D6E6F"/>
			<stop  offset="0.9976" style="stop-color:#090506"/>
		</linearGradient>
		<path style="fill:url(#SVGID_00000177442186713789316210000009489773065345485487_);" d="M66.5,61.1v-0.5h3.4v-1.2h-1.3v-1.2h1.1
			V57h-1.1v-1.1h1.1v-1.2h-1.1v-1.1h1.2v-1.2h-1.2c0.2-0.5,0.4-1.2,0.7-1.8L68,50.4c-0.1,0.6-0.4,1.4-0.6,2h-0.8
			c0.2-0.6,0.4-1.2,0.6-1.9L66,50.3c-0.4,1.4-0.9,2.8-1.6,3.8v-1.5h-1v2.3h-2c0.2-0.2,0.5-0.4,0.7-0.7c0.2,0.2,0.5,0.4,0.6,0.5
			l0.6-0.7c-0.2-0.2-0.4-0.3-0.7-0.5c0.2-0.3,0.4-0.6,0.5-0.9l-0.9-0.2c-0.1,0.2-0.2,0.5-0.4,0.7c-0.2-0.1-0.5-0.3-0.7-0.4l-0.5,0.6
			c0.2,0.1,0.5,0.3,0.7,0.4c-0.2,0.2-0.5,0.5-0.8,0.7c0.2,0.1,0.5,0.3,0.7,0.5h-0.7v-2.3h-1v3.3h1.8c0,0.2,0,0.4-0.1,0.6h-2v4.7h1.1
			v-3.7h0.8c-0.1,0.4-0.1,0.8-0.2,1.1l-0.4,0l0.1,0.9c0.6,0,1.3-0.1,2-0.2c0,0.2,0.1,0.3,0.1,0.4l0.7-0.2v0.4c0,0.1,0,0.2-0.2,0.2
			c-0.1,0-0.6,0-1,0c0.1,0.3,0.3,0.7,0.3,1c0.7,0,1.2,0,1.5-0.2c0.4-0.2,0.5-0.5,0.5-1v-3.5h-2.2l0.1-0.6h1.9v-1
			c0.2,0.2,0.5,0.5,0.7,0.6c0.1-0.1,0.2-0.2,0.2-0.3v6L66.5,61.1L66.5,61.1z M66.5,53.6h0.9v1.1h-0.9V53.6z M66.5,55.9h0.9V57h-0.9
			V55.9z M66.5,58.1h0.9v1.2h-0.9V58.1z M63.5,57.4v1.8c-0.1-0.5-0.3-1-0.5-1.5l-0.7,0.2c0.1,0.2,0.1,0.4,0.2,0.6l-0.5,0
			c0.1-0.3,0.2-0.7,0.2-1.1C62.2,57.4,63.5,57.4,63.5,57.4z"/>
		
			<linearGradient id="SVGID_00000113315027933755603460000018328079965275412374_" gradientUnits="userSpaceOnUse" x1="121.9895" y1="-104.9605" x2="-47.6004" y2="55.3195" gradientTransform="matrix(1 0 0 1 0 99.98)">
			<stop  offset="0" style="stop-color:#6D6E6F"/>
			<stop  offset="0.9976" style="stop-color:#090506"/>
		</linearGradient>
		<polygon style="fill:url(#SVGID_00000113315027933755603460000018328079965275412374_);" points="61.3,50.2 61.3,51.2 59.1,51.2 
			59.1,52.3 64.9,52.3 64.9,51.2 62.6,51.2 62.6,50.2 		"/>
		
			<linearGradient id="SVGID_00000072967430752696374440000000789250209715670932_" gradientUnits="userSpaceOnUse" x1="130.6711" y1="-95.7788" x2="-38.9189" y2="64.5012" gradientTransform="matrix(1 0 0 1 0 99.98)">
			<stop  offset="0" style="stop-color:#6D6E6F"/>
			<stop  offset="0.9976" style="stop-color:#090506"/>
		</linearGradient>
		<path style="fill:url(#SVGID_00000072967430752696374440000000789250209715670932_);" d="M81,58c-0.1,0.9-0.1,1.5-0.3,1.5
			s-0.3-0.3-0.4-0.9c0.5-0.9,1-1.9,1.3-3l-1.1-0.2c-0.1,0.4-0.2,0.9-0.4,1.3c-0.1-0.5-0.1-1.1-0.1-1.7h1.7v-1.1H80
			c0-0.8,0-1.6,0-2.4c0.4,0.5,0.8,1.2,0.9,1.7l1-0.5c-0.2-0.5-0.7-1.3-1.1-1.8l-0.7,0.4v-0.9h-1.2c0,1.3,0,2.5,0.1,3.6h-0.9
			c0.1-0.4,0.3-0.9,0.5-1.4l-0.8-0.2h1v-1h-1.2v-1h-1.2v1h-1.1v-0.6h-4v1.2h0.4v6.3c-0.2,0-0.5,0.1-0.7,0.1l0.2,1.3
			c0.7-0.1,1.5-0.3,2.3-0.5v2h1.2v-9.2H75v0.4h0.9l-0.7,0.2c0.1,0.4,0.2,1,0.2,1.4h-0.7v1.1h4.1c0.1,1.3,0.2,2.5,0.3,3.4
			c-0.2,0.3-0.5,0.6-0.8,0.9v-3.8h-3.2v4.8h1.1v-0.7H78c-0.2,0.2-0.5,0.4-0.8,0.6c0.2,0.2,0.6,0.7,0.8,0.9c0.6-0.4,1.1-0.8,1.5-1.4
			c0.3,0.8,0.7,1.3,1.2,1.3c0.4,0,0.9-0.4,1.2-2.3C81.7,58.6,81.2,58.3,81,58L81,58L81,58z M73.4,57.9L72.7,58v-1.4h0.8
			C73.4,56.6,73.4,57.9,73.4,57.9z M73.4,55.5h-0.8v-1.2h0.8V55.5z M73.4,53.2h-0.8v-1.2h0.8V53.2z M75.9,53.9l0.5-0.1
			c0-0.4-0.1-1-0.3-1.4h1.2c-0.1,0.4-0.2,1-0.3,1.4l0.6,0.1C77.6,53.9,75.9,53.9,75.9,53.9z M77.3,58.7h-1.1V58h1.1V58.7z
			 M77.3,57.1h-1.1v-0.7h1.1V57.1z"/>
		
			<linearGradient id="SVGID_00000040567279327671997550000001446797366908405664_" gradientUnits="userSpaceOnUse" x1="135.5388" y1="-90.6213" x2="-34.0512" y2="69.6687" gradientTransform="matrix(1 0 0 1 0 99.98)">
			<stop  offset="0" style="stop-color:#6D6E6F"/>
			<stop  offset="0.9976" style="stop-color:#090506"/>
		</linearGradient>
		<path style="fill:url(#SVGID_00000040567279327671997550000001446797366908405664_);" d="M85.9,56l-0.2-0.9
			c-1.1,0.4-2.2,0.8-2.9,1.1l0.7,1.1c0.6-0.3,1.4-0.6,2.1-1l0.1,0.8c1.1-0.1,2.5-0.2,3.9-0.3c0.1,0.2,0.2,0.4,0.2,0.6l1-0.5
			c-0.1-0.2-0.2-0.5-0.4-0.8c0.7,0.4,1.4,0.9,1.8,1.3l1-0.8C92.8,56,91.8,55.4,91,55l-0.7,0.6c-0.2-0.3-0.4-0.6-0.6-0.8l-1,0.4
			c0.1,0.2,0.3,0.4,0.4,0.6l-1.2,0.1c0.7-0.7,1.5-1.5,2.2-2.3L89,53.1c-0.3,0.4-0.7,0.9-1.1,1.4c-0.2-0.1-0.4-0.3-0.6-0.4
			c0.3-0.4,0.7-0.9,1.1-1.3l-0.2-0.1H93v-1.2h-4.2v-1.1h-1.4v1.1h-4.1v1.2h3.8c-0.2,0.3-0.3,0.6-0.5,0.9l-0.3-0.2L85.8,54
			c-0.4-0.4-1.1-0.8-1.7-1.1l-0.9,0.8c0.6,0.3,1.4,0.9,1.7,1.3l0.8-0.7c0.5,0.3,1,0.7,1.5,1.1c-0.2,0.2-0.4,0.4-0.7,0.7L85.9,56
			L85.9,56L85.9,56z"/>
		
			<linearGradient id="SVGID_00000016759731667250666110000008124521040387189160_" gradientUnits="userSpaceOnUse" x1="137.0276" y1="-89.0625" x2="-32.5724" y2="71.2275" gradientTransform="matrix(1 0 0 1 0 99.98)">
			<stop  offset="0" style="stop-color:#6D6E6F"/>
			<stop  offset="0.9976" style="stop-color:#090506"/>
		</linearGradient>
		<path style="fill:url(#SVGID_00000016759731667250666110000008124521040387189160_);" d="M90.3,54.2l1,0.5
			c0.5-0.4,1.2-0.9,1.8-1.4l-1.2-0.6C91.4,53.2,90.8,53.8,90.3,54.2C90.3,54.2,90.3,54.2,90.3,54.2z"/>
		
			<linearGradient id="SVGID_00000040543871286261484820000009380507326892642468_" gradientUnits="userSpaceOnUse" x1="137.6479" y1="-88.4023" x2="-31.9521" y2="71.8777" gradientTransform="matrix(1 0 0 1 0 99.98)">
			<stop  offset="0" style="stop-color:#6D6E6F"/>
			<stop  offset="0.9976" style="stop-color:#090506"/>
		</linearGradient>
		<polygon style="fill:url(#SVGID_00000040543871286261484820000009380507326892642468_);" points="88.8,61.1 88.8,59 93.3,59 
			93.3,57.7 88.8,57.7 88.8,57 87.4,57 87.4,57.7 82.9,57.7 82.9,59 87.4,59 87.4,61.1 		"/>
		
			<linearGradient id="SVGID_00000166656643557983171500000004811140090541117596_" gradientUnits="userSpaceOnUse" x1="38.1708" y1="-34.7954" x2="19.4525" y2="-17.1058" gradientTransform="matrix(1 0 0 1 0 99.98)">
			<stop  offset="0" style="stop-color:#6D6E6F"/>
			<stop  offset="0.9976" style="stop-color:#090506"/>
		</linearGradient>
		<path style="fill:url(#SVGID_00000166656643557983171500000004811140090541117596_);" d="M28.5,72.2v4.1"/>
	</g>
</g>
<path d="M42.1,97.7V67h-5c0,0.3-0.1,0.7-0.2,1.2c-0.3,0.9-0.7,1.7-1.2,2.2c-0.8,0.8-1.8,1.3-3,1.6c-0.8,0.2-2.1,0.3-4,0.4v4.1h7.2
	v21.2H42.1z"/>
<path d="M59.4,95.7c1.7,0,2.9-1.4,2.9-3.8s-1.2-3.8-2.9-3.8s-2.9,1.4-2.9,3.8S57.7,95.7,59.4,95.7z M59.4,89.4
	c0.7,0,1.2,0.7,1.2,2.5s-0.5,2.5-1.2,2.5s-1.2-0.7-1.2-2.5S58.7,89.4,59.4,89.4z"/>
<path d="M47.7,87c0,2.4,1.2,3.8,2.9,3.8s2.9-1.4,2.9-3.8s-1.2-3.8-2.9-3.8S47.7,84.6,47.7,87z M50.7,84.6c0.7,0,1.2,0.7,1.2,2.4
	s-0.5,2.5-1.2,2.5s-1.2-0.7-1.2-2.5S50,84.6,50.7,84.6z"/>
<polygon points="59,83.2 57.6,83.2 51.1,95.7 52.5,95.7 "/>
<path d="M72.2,96.9c2.2-1,3.8-2.3,4.9-3.9c1.2,1.4,2.4,2.9,3,3.9l1.7-1.6c-0.8-1.1-2.3-2.8-3.6-4.2c1.1-2.2,1.6-4.9,2-8.3l-2.1-0.2
	c-0.6,6.7-2.3,10.6-7.4,12.6C71.1,95.6,71.9,96.5,72.2,96.9L72.2,96.9L72.2,96.9z"/>
<path d="M76,87.5c-0.5-1.1-1.5-2.7-2.6-3.9l-1.8,0.9c1,1.2,2,2.9,2.4,4L76,87.5C76,87.5,76,87.5,76,87.5z"/>
<path d="M73.4,92.3L73,90.4c-0.8,0.3-1.6,0.7-2.5,1l-0.3-8.8l-2,0.1l0.3,9.5c-0.8,0.3-1.5,0.6-2.2,0.8l0.7,2.1
	C68.9,94.3,71.3,93.3,73.4,92.3L73.4,92.3z"/>
<path d="M84.6,92.3c0.5,0.4,1.1,1,1.3,1.4c1.8-1,2.9-2.4,3.5-3.7c1.2,1.2,2.4,2.5,3.1,3.4l1.6-1.2c-0.9-1.1-2.6-2.8-4-4.1
	c0.1-0.6,0.2-1.2,0.2-1.8h3.8v8.3c0,0.3-0.1,0.4-0.4,0.4c-0.3,0-1.4,0-2.4,0c0.3,0.5,0.6,1.4,0.6,1.9c1.4,0,2.5,0,3.2-0.3
	c0.7-0.3,0.9-0.8,0.9-1.9V84.4h-5.7v-2.7h-2v2.7h-5.7v12.5h1.9L84.6,92.3L84.6,92.3L84.6,92.3z M84.6,86.3h3.7c-0.1,2-0.6,4.4-3.7,6
	V86.3z"/>
</svg>
