<?xml version="1.0" encoding="utf-8"?>
<!-- Generator: Adobe Illustrator 27.0.1, SVG Export Plug-In . SVG Version: 6.00 Build 0)  -->
<svg version="1.1" id="_レイヤー_2" xmlns="http://www.w3.org/2000/svg" xmlns:xlink="http://www.w3.org/1999/xlink" x="0px"
	 y="0px" viewBox="0 0 129.1 130.2" style="enable-background:new 0 0 129.1 130.2;" xml:space="preserve">
<style type="text/css">
	.st0{fill:url(#SVGID_1_);}
	.st1{fill:url(#SVGID_00000118385158639082163850000000895316039277404604_);}
	.st2{fill:url(#SVGID_00000054251731979754619780000010229247264620097468_);}
	.st3{fill:url(#SVGID_00000123399112009332729820000013297866163730255262_);}
	.st4{fill:url(#SVGID_00000167380250403387301060000015723717939788985228_);}
	.st5{fill:url(#SVGID_00000149353174122082215280000003663079447744012221_);}
	.st6{fill:url(#SVGID_00000106826915652044335560000002620053708225121680_);}
	.st7{fill:url(#SVGID_00000112591128285109066990000003410541909724361351_);}
	.st8{fill:url(#SVGID_00000009563877013038336760000016318135674986432183_);}
	.st9{fill:url(#SVGID_00000052104555075511409180000005975209545388123782_);}
	.st10{fill:url(#SVGID_00000085232913865215407440000001225533878134750890_);}
	.st11{fill:url(#SVGID_00000055682620695078198990000013712018043787557006_);}
	.st12{fill:url(#SVGID_00000118369170000638318140000001260422177220911262_);}
	.st13{fill:url(#SVGID_00000134243800751837231020000003019214720113307308_);}
	.st14{fill:url(#SVGID_00000163031851733269930770000009303573040521651625_);}
	.st15{fill:url(#SVGID_00000183949653406529008150000018345788682443198348_);}
</style>
<g id="_レイヤー_1-2">
	<g>
		
			<linearGradient id="SVGID_1_" gradientUnits="userSpaceOnUse" x1="129.3021" y1="-85.3275" x2="-79.1779" y2="85.5925" gradientTransform="matrix(1 0 0 1 0 99.98)">
			<stop  offset="0" style="stop-color:#6D6E6F"/>
			<stop  offset="0.9976" style="stop-color:#090506"/>
		</linearGradient>
		<path class="st0" d="M124.7,72.9c-0.8,0.3-1.6,0.8-2.1,1.6c-0.1,0.2-0.2,0.3-0.3,0.5c0.2-1.6,0.4-3.2,0.6-4.8v0
			c1,0.2,3.1,0.5,4.9-1.7c0.6-1.1,0.8-1.8,0.8-2.5c0-0.7,0-1.2,0.5-1.8c-0.6,0-2.5,0.4-4,1.3c-0.8,0.4-1.5,1-1.9,1.8
			c-0.1,0.1-0.1,0.2-0.2,0.4c0.1-1.6,0-3.2-0.1-4.8c0.5,0,1.2,0,2.1-0.2s1.8-0.8,2.5-2c0.9-2.2-0.1-3,0.7-4.3
			c-0.6,0.1-2.3,0.7-3.8,1.8c-0.7,0.5-1.3,1.2-1.7,2c-0.1,0.1-0.1,0.3-0.1,0.5c-0.2-1.6-0.4-3.2-0.7-4.8c0.9-0.1,3-0.3,4.2-2.8
			c0.6-2.3-0.5-2.9,0.2-4.3c-0.6,0.2-2.2,1-3.5,2.2c-0.8,0.7-1.3,1.6-1.4,2.6c-0.4-1.6-0.8-3.2-1.3-4.8c0,0,0,0,0,0
			c0.9-0.2,2.9-0.6,3.8-3.2c0.4-2.3-0.8-2.7-0.3-4.2c-0.5,0.2-2.1,1.2-3.1,2.5c-0.6,0.8-1.1,1.7-1.1,2.7c-0.4-1-0.8-2-1.2-2.9
			c-0.2-0.6-0.5-1.1-0.8-1.7c0,0,0,0,0,0c0.8-0.3,2.8-1,3.2-3.5c0.1-2.3-1.1-2.6-0.8-4c-0.5,0.3-1.8,1.4-2.7,2.8
			c-0.5,0.8-0.9,1.8-0.8,2.7c-0.8-1.5-1.6-2.9-2.5-4.3c0.8-0.4,2.5-1.3,2.8-3.9c-0.2-2.2-1.4-2.3-1.3-3.8c-0.4,0.3-1.7,1.6-2.3,3.1
			c-0.4,0.9-0.6,1.8-0.4,2.8c-1-1.4-2-2.8-3-4.1c0.7-0.5,2.3-1.5,2.2-4.1c-0.2-1.1-0.6-1.6-0.9-2.1c-0.4-0.4-0.7-0.8-0.7-1.5
			c-0.4,0.4-1.4,1.7-1.9,3.2c-0.3,0.9-0.4,1.8-0.1,2.7c-1.1-1.3-2.3-2.5-3.5-3.6c0.3-0.3,0.8-0.7,1.2-1.4c0.4-0.7,0.7-1.6,0.4-2.8
			c-0.7-2-1.8-1.9-2-3.2c-0.3,0.4-1.2,1.9-1.5,3.4c-0.2,0.8-0.2,1.6,0.1,2.3c0,0.1,0.1,0.2,0.2,0.3c-1.3-1.1-2.6-2.2-3.9-3.2
			c0.6-0.6,1.7-2,1.1-4.3c-0.2-0.5-0.4-0.8-0.7-1.1c-0.2-0.3-0.5-0.4-0.7-0.6c-0.4-0.3-0.8-0.6-1-1.2c-0.3,0.4-0.9,1.9-1,3.4
			c-0.1,0.8,0.1,1.5,0.4,2.2c0.1,0.1,0.1,0.2,0.2,0.3c-1.1-0.8-2.2-1.5-3.3-2.1c0.1-0.9,0-2.3-1.7-3.2c-1.9-0.6-2.6,0.4-3.6-0.2
			c0,0.5,0.3,2,1.1,3c0.7,1,1.9,1.6,3.9,0.8c0.4,0.3,0.9,0.5,1.3,0.8c-0.8-0.1-1.6,0.2-2.2,0.6c-1.3,0.8-2.2,2.1-2.5,2.5
			c1.2-0.3,1.3,0.7,3.2,0.7c1.1-0.2,1.9-0.7,2.5-1.2c0.5-0.5,0.8-1,1-1.3c1.3,0.9,2.6,1.9,3.9,2.9c-0.8-0.2-1.6,0-2.3,0.3
			c-1.4,0.7-2.5,1.9-2.9,2.3c1.2-0.2,1.3,0.8,3.1,1c2.2-0.1,3.4-1.4,3.9-2.1c1.2,1.1,2.3,2.2,3.5,3.4c-0.1,0-0.1,0-0.2-0.1
			c-0.7-0.2-1.5-0.1-2.3,0.1c-1.5,0.5-2.8,1.5-3.2,1.9c1.3,0,1.1,1,3,1.4c2.2,0.2,3.6-1,4.2-1.6c1.1,1.2,2.1,2.4,3,3.7
			c-0.7-0.4-1.6-0.5-2.4-0.3c-1.6,0.3-3,1.3-3.5,1.6c1.4,0.1,1,1.1,2.9,1.8c2.2,0.4,3.8-0.5,4.4-1.2c0.9,1.3,1.7,2.6,2.5,4
			c0,0-0.1-0.1-0.1-0.1c-0.7-0.4-1.5-0.5-2.3-0.4c-1.6,0.1-3.2,0.9-3.7,1.2c0.7,0.1,0.9,0.5,1.2,0.8c0.3,0.4,0.7,0.8,1.5,1.3
			c2.2,0.8,3.9-0.1,4.6-0.6c0.6,1.2,1.2,2.4,1.7,3.6c0.1,0.2,0.2,0.4,0.3,0.6c-0.1,0-0.1-0.1-0.2-0.1c-0.7-0.5-1.5-0.7-2.3-0.8
			c-1.7-0.1-3.3,0.5-3.9,0.7c1.3,0.4,0.7,1.4,2.5,2.5c2.2,1,3.9,0.4,4.8,0c0.5,1.5,1,2.9,1.4,4.4c-0.6-0.7-1.4-1.1-2.3-1.2
			c-1.7-0.3-3.5,0.1-4.1,0.3c0.6,0.3,0.8,0.7,1,1.1c0.2,0.5,0.4,1,1.2,1.7c2.1,1.3,3.9,0.9,4.9,0.5c0.3,1.5,0.6,3,0.9,4.5
			c0-0.1-0.1-0.1-0.1-0.2c-0.5-0.7-1.3-1.1-2.2-1.3c-1.7-0.5-3.5-0.3-4.1-0.2c0.6,0.4,0.7,0.8,0.8,1.3c0.2,0.5,0.3,1.1,1,1.9
			c1.9,1.6,3.9,1.4,4.9,1.2c0,0.3,0.1,0.5,0.1,0.8c0.1,1.2,0.2,2.5,0.2,3.8c0-0.1-0.1-0.2-0.1-0.3c-0.4-0.7-1.2-1.3-2-1.6
			c-1.6-0.7-3.5-0.8-4.1-0.8c1.1,0.9,0.2,1.7,1.4,3.4c1.7,1.8,3.8,1.9,4.8,1.8c-0.1,1.5-0.2,3-0.3,4.5c-0.3-0.9-1-1.7-1.8-2.2
			c-1.6-0.9-3.5-1.3-4.1-1.3c1.1,1.1,0,1.7,1,3.7c0.8,1.1,1.7,1.7,2.5,2.1c0.8,0.3,1.5,0.4,2,0.4c-0.2,1.5-0.5,2.9-0.9,4.4
			c-0.2-1-0.8-1.8-1.6-2.4c-1.4-1.1-3.3-1.7-4-1.8c0.9,1.2-0.2,1.8,0.6,3.8c1.3,2.3,3.3,2.9,4.4,3c-0.4,1.4-0.8,2.8-1.3,4.2
			c0-0.1,0-0.2,0-0.3c-0.2-0.9-0.7-1.7-1.4-2.4c-1.3-1.3-3.2-2.1-3.8-2.3c0.4,0.7,0.3,1.1,0.1,1.6c-0.1,0.6-0.2,1.2,0,2.3
			c1,2.5,3,3.3,4,3.6c-0.6,1.4-1.2,2.7-1.8,4c0.1-1.1-0.4-2.1-1.1-2.9c-1.2-1.5-2.9-2.5-3.5-2.8c0.6,1.4-0.7,1.7-0.3,4
			c0.7,2.6,2.6,3.7,3.7,4.1c-0.3,0.5-0.6,1-0.8,1.5c-0.5,0.8-1,1.5-1.5,2.3c0-0.1,0-0.3,0.1-0.4c0.1-0.9-0.2-1.9-0.8-2.7
			c-1-1.6-2.7-2.9-3.3-3.2c0.2,0.8,0,1.2-0.2,1.7c-0.3,0.5-0.6,1.1-0.6,2.3c0.4,2.8,2.2,4.1,3.2,4.6c-0.9,1.2-1.8,2.3-2.7,3.4
			c0-0.1,0.1-0.2,0.1-0.4c0.2-0.9,0-1.9-0.4-2.8c-0.8-1.8-2.4-3.3-2.9-3.7c0.1,0.8-0.1,1.2-0.4,1.7c-0.3,0.5-0.7,1-0.9,2.2
			c0.1,1.5,0.5,2.6,1,3.4c0.5,0.8,1.1,1.3,1.6,1.7c-1,1-2,2-3.1,3c0.5-1,0.4-2.1,0.1-3.2c-0.6-1.9-2-3.6-2.4-4.1
			c0.1,1.6-1.2,1.4-1.8,3.7c-0.3,2.8,1.1,4.7,2,5.5c-1.1,0.9-2.2,1.7-3.4,2.5c0.1-0.1,0.1-0.2,0.2-0.3c0.4-0.9,0.5-1.9,0.3-2.9
			c-0.3-2-1.5-3.9-1.9-4.4c-0.1,0.8-0.4,1.1-0.9,1.5s-0.9,0.9-1.4,2c-0.7,2.8,0.5,4.9,1.2,5.8c-0.2,0.1-0.3,0.2-0.5,0.3
			c-1.1,0.6-2.1,1.2-3.2,1.7c0.8-0.9,1-2.1,1-3.2c-0.1-2-1-4.1-1.3-4.7c-0.4,1.6-1.6,1-2.8,3.2c-1.1,2.7-0.2,5,0.4,6
			c-0.8,0.3-1.6,0.7-2.4,1c-0.5,0.2-1,0.4-1.5,0.6c0.9-0.8,1.3-2,1.4-3.2c0.2-2.1-0.4-4.3-0.7-5c-0.5,1.6-1.8,0.9-3.4,3
			c-1.4,2.7-0.7,5.1-0.2,6.1c-1.3,0.4-2.7,0.8-4,1.1c1-0.7,1.5-1.9,1.8-3.1c0.4-2.1,0-4.4-0.2-5.1c-0.8,1.6-1.9,0.7-3.6,2.6
			c-1.7,2.5-1.3,5-0.9,6.2c-2.2,0.4-4.4,0.6-6.6,0.8c-1.5,0.1-2.6,0.5-3.6,1c-1-0.5-2.1-0.9-3.6-1c-2.2-0.1-4.4-0.4-6.6-0.8
			c0.4-1.2,0.8-3.6-0.9-6.2c-1.7-1.9-2.8-1-3.6-2.6c-0.2,0.7-0.6,3-0.2,5.1c0.2,1.2,0.8,2.3,1.8,3.1c-1.3-0.3-2.7-0.7-4-1.1
			c0.5-1.1,1.3-3.4-0.2-6.1c-1.6-2.1-2.8-1.4-3.4-3c-0.3,0.7-0.9,2.9-0.7,5c0.1,1.2,0.5,2.4,1.4,3.2c-0.5-0.2-1-0.4-1.5-0.6
			c-0.8-0.3-1.6-0.6-2.4-1c0.6-1,1.5-3.3,0.5-6c-1.2-2.2-2.4-1.6-2.8-3.2c-0.4,0.6-1.3,2.7-1.3,4.7c0,1.1,0.2,2.3,1,3.2
			c-1.1-0.6-2.2-1.1-3.2-1.7c-0.2-0.1-0.3-0.2-0.5-0.3c0.7-0.9,1.9-3,1.2-5.8c-0.5-1.1-1-1.6-1.4-2c-0.4-0.4-0.8-0.7-0.9-1.5
			c-0.4,0.6-1.6,2.4-1.9,4.4c-0.2,1-0.1,2,0.3,2.9c0,0.1,0.1,0.2,0.2,0.3c-1.2-0.8-2.3-1.6-3.4-2.5c0.8-0.8,2.2-2.6,2-5.5
			c-0.6-2.3-1.9-2.1-1.8-3.7c-0.5,0.5-1.9,2.2-2.5,4.1c-0.4,1.1-0.4,2.2,0.1,3.2C25,109,24,108,23,107c0.4-0.3,1.1-0.9,1.6-1.7
			c0.5-0.8,1-1.9,1-3.4c-0.1-1.2-0.5-1.8-0.9-2.2c-0.3-0.5-0.6-0.9-0.4-1.7c-0.5,0.4-2.1,1.9-2.9,3.7c-0.4,0.9-0.6,1.9-0.4,2.8
			c0,0.1,0.1,0.2,0.1,0.4c-1-1.1-1.9-2.2-2.7-3.4c1-0.5,2.8-1.9,3.2-4.6c0-1.2-0.3-1.8-0.6-2.3c-0.3-0.5-0.5-0.9-0.2-1.7
			c-0.6,0.3-2.3,1.6-3.3,3.2c-0.5,0.8-0.8,1.7-0.8,2.7c0,0.1,0,0.3,0,0.4c-0.5-0.8-1-1.5-1.5-2.3c-0.3-0.5-0.6-1-0.9-1.5
			c1-0.4,2.9-1.5,3.7-4.1c0.3-2.3-0.9-2.6-0.3-4c-0.6,0.3-2.4,1.3-3.5,2.8C13.5,90.9,13,92,13.1,93c-0.7-1.3-1.3-2.7-1.8-4
			c1-0.3,3-1.1,4-3.6c0.2-1.1,0.1-1.8,0-2.3c-0.1-0.5-0.2-1,0.1-1.6c-0.6,0.2-2.5,1-3.8,2.3c-0.7,0.7-1.2,1.4-1.4,2.4
			c0,0.1,0,0.2,0,0.3c-0.5-1.4-0.9-2.8-1.3-4.2c1-0.2,3.1-0.7,4.4-3c0.7-2.1-0.3-2.6,0.6-3.8c-0.6,0.1-2.5,0.7-4,1.8
			c-0.8,0.6-1.4,1.4-1.6,2.4c-0.3-1.4-0.6-2.9-0.9-4.4c0.5,0,1.2-0.1,2-0.4c0.8-0.3,1.7-1,2.5-2.1c1-2-0.1-2.6,1-3.7
			c-0.6,0.1-2.6,0.4-4.1,1.3C8,70.8,7.3,71.6,7,72.5c-0.2-1.5-0.3-3-0.3-4.5c1,0.1,3.1,0,4.7-1.8c1.3-1.8,0.4-2.5,1.4-3.4
			c-0.6,0-2.5,0-4.1,0.8c-0.8,0.4-1.5,0.9-2,1.6c-0.1,0.1-0.1,0.2-0.1,0.3c0-1.3,0.1-2.5,0.2-3.8c0-0.3,0.1-0.5,0.1-0.8
			c1,0.2,3,0.4,4.9-1.2c0.7-0.8,0.9-1.4,1-1.9c0.1-0.5,0.2-0.9,0.8-1.3c-0.6-0.1-2.4-0.3-4.1,0.2c-0.8,0.2-1.6,0.7-2.2,1.3
			c0,0.1-0.1,0.1-0.1,0.2c0.2-1.5,0.5-3,0.9-4.5C9.1,54,11,54.4,13,53.1c0.8-0.7,1-1.2,1.2-1.7c0.2-0.5,0.4-0.8,1-1.1
			c-0.6-0.2-2.4-0.6-4.1-0.3c-0.9,0.2-1.8,0.5-2.3,1.2c0.4-1.5,0.9-3,1.4-4.4c0.9,0.5,2.6,1.1,4.8,0c1.7-1.1,1.2-2.1,2.5-2.5
			c-0.5-0.2-2.2-0.8-3.9-0.7c-0.8,0-1.6,0.3-2.3,0.8c-0.1,0-0.1,0.1-0.1,0.1c0.1-0.2,0.2-0.4,0.3-0.6c0.5-1.2,1.1-2.4,1.7-3.6
			c0.8,0.5,2.4,1.4,4.6,0.6c0.9-0.5,1.2-0.9,1.5-1.3s0.5-0.7,1.2-0.8c-0.5-0.3-2.1-1.1-3.7-1.2c-0.8-0.1-1.6,0-2.4,0.4
			c0,0-0.1,0.1-0.1,0.1c0.8-1.3,1.6-2.7,2.5-4c0.7,0.6,2.2,1.6,4.5,1.2c1.9-0.7,1.5-1.8,2.9-1.8c-0.4-0.3-1.9-1.3-3.5-1.6
			c-0.8-0.2-1.7-0.1-2.5,0.3c1-1.3,2-2.5,3-3.7c0.6,0.7,2,1.8,4.2,1.6c1.9-0.4,1.8-1.5,3-1.4c-0.4-0.4-1.7-1.5-3.2-1.9
			c-0.7-0.2-1.5-0.3-2.3-0.1c0,0-0.1,0-0.2,0.1c1.1-1.2,2.3-2.3,3.5-3.4c0.5,0.7,1.7,2,3.9,2.1c1.8-0.3,1.9-1.2,3.1-1
			c-0.3-0.4-1.5-1.6-2.9-2.3c-0.8-0.4-1.6-0.5-2.3-0.3c1.2-1,2.5-2,3.9-2.9c0.2,0.4,0.5,0.9,1,1.3c0.6,0.5,1.3,1,2.5,1.2
			c1.9,0,2-1,3.2-0.7c-0.3-0.4-1.2-1.7-2.5-2.5c-0.7-0.4-1.4-0.7-2.2-0.6c0.4-0.3,0.9-0.5,1.3-0.8c2,0.7,3.1,0.1,3.9-0.9
			c0.7-1.1,1-2.5,1-3c-1,0.6-1.7-0.3-3.6,0.2c-1.7,0.8-1.8,2.3-1.7,3.2c-1.1,0.7-2.2,1.4-3.3,2.1c0.1-0.1,0.1-0.2,0.2-0.3
			c0.3-0.7,0.4-1.4,0.4-2.2c-0.1-1.5-0.8-3-1-3.4c-0.2,0.6-0.5,0.9-1,1.2c-0.2,0.2-0.5,0.3-0.7,0.6c-0.2,0.3-0.5,0.6-0.7,1.1
			c-0.6,2.3,0.5,3.7,1.1,4.3c-1.4,1-2.7,2.1-3.9,3.2c0.1-0.1,0.1-0.2,0.2-0.3c0.3-0.7,0.2-1.5,0.1-2.3c-0.3-1.5-1.1-3-1.5-3.4
			c-0.2,1.4-1.3,1.2-2,3.2c-0.2,1.2,0.1,2.1,0.5,2.8c0.4,0.7,0.9,1.1,1.2,1.4c-1.2,1.2-2.4,2.4-3.5,3.6c0.3-0.9,0.2-1.8-0.1-2.7
			c-0.5-1.5-1.5-2.9-1.9-3.2c0,0.7-0.3,1-0.7,1.5c-0.4,0.4-0.7,1-1,2.1c-0.1,2.5,1.5,3.6,2.2,4.1c-1.1,1.3-2.1,2.7-3,4.1
			c0.2-0.9,0.1-1.9-0.4-2.8c-0.7-1.5-1.9-2.7-2.3-3.1c0.1,1.5-1.1,1.6-1.3,3.8c0.3,2.6,1.9,3.5,2.8,3.9c-0.9,1.4-1.7,2.8-2.5,4.3
			c0.1-1-0.2-1.9-0.8-2.7c-0.9-1.4-2.2-2.5-2.7-2.8c0.3,1.4-0.9,1.8-0.8,4c0.5,2.6,2.4,3.3,3.2,3.5c0,0,0,0,0,0
			c-0.3,0.6-0.5,1.1-0.8,1.7c-0.4,1-0.8,1.9-1.2,2.9c0-1-0.5-1.9-1.1-2.7c-1-1.3-2.6-2.3-3.1-2.5c0.5,1.4-0.8,1.8-0.3,4.2
			c0.9,2.6,2.8,3,3.7,3.2l0,0c-0.5,1.6-1,3.2-1.3,4.8c-0.1-1-0.7-1.9-1.4-2.6c-1.2-1.2-2.9-2-3.5-2.2c0.7,1.4-0.5,2,0.2,4.3
			c1.3,2.5,3.3,2.7,4.2,2.8c-0.3,1.6-0.6,3.2-0.7,4.8c0-0.2-0.1-0.3-0.1-0.5c-0.3-0.8-0.9-1.4-1.7-2c-1.4-1.1-3.2-1.7-3.8-1.8
			c0.8,1.3-0.2,2.1,0.8,4.3c0.7,1.2,1.7,1.8,2.5,2c0.8,0.3,1.6,0.3,2.1,0.2c-0.1,1.6-0.1,3.2-0.1,4.8C6.1,67.5,6,67.4,6,67.3
			c-0.5-0.8-1.2-1.3-1.9-1.8c-1.5-0.9-3.4-1.2-4-1.3c0.5,0.6,0.5,1.2,0.5,1.8c0,0.7,0.1,1.4,0.8,2.5c1.9,2.2,4,1.8,4.9,1.7v0
			c0.1,1.6,0.3,3.2,0.6,4.8c-0.1-0.2-0.2-0.3-0.3-0.5c-0.5-0.7-1.3-1.2-2.1-1.6c-1.7-0.7-3.6-0.8-4.3-0.8c0.6,0.6,0.7,1.1,0.8,1.7
			c0.1,0.6,0.2,1.4,1.1,2.4c2.2,1.9,4.3,1.4,5.2,1.1v0c0.2,0.9,0.4,1.8,0.6,2.7c0.2,0.7,0.3,1.4,0.5,2c-0.1-0.2-0.2-0.3-0.4-0.5
			c-0.6-0.7-1.5-1.1-2.4-1.3c-1.8-0.5-3.8-0.4-4.4-0.3c1.4,1,0.6,2.1,2.4,4c2.5,1.7,4.5,0.9,5.4,0.4v0c0.5,1.5,1,3,1.6,4.5
			c-0.1-0.1-0.2-0.3-0.4-0.4c-0.7-0.6-1.6-0.9-2.6-1.1c-1.9-0.3-3.8,0-4.5,0.2c1.4,0.9,0.9,2.1,2.9,3.7c1.3,0.8,2.5,0.8,3.4,0.7
			c0.9-0.2,1.7-0.6,2.1-0.8c0,0,0,0,0-0.1c0.6,1.4,1.4,2.8,2.1,4.2c-0.1-0.1-0.3-0.2-0.4-0.3c-0.8-0.5-1.8-0.7-2.7-0.8
			c-1.9-0.1-3.9,0.5-4.5,0.8c0.8,0.3,1.1,0.8,1.4,1.4c0.4,0.6,0.8,1.3,2,2c2.8,1.2,4.7-0.2,5.6-0.9c0,0,0,0,0-0.1
			c0.8,1.3,1.7,2.6,2.6,3.9c-0.2-0.1-0.3-0.2-0.5-0.3c-0.9-0.4-1.8-0.5-2.8-0.4c-2,0.1-3.9,1-4.5,1.3c0.9,0.3,1.2,0.7,1.6,1.3
			c0.4,0.6,1,1.2,2.2,1.8c3.1,0.8,4.7-0.8,5.5-1.6c0-0.1,0-0.1,0-0.1c1,1.3,2.1,2.5,3.2,3.6c-0.2-0.1-0.4-0.2-0.6-0.3
			c-0.9-0.3-1.9-0.3-2.9-0.1c-2,0.4-3.8,1.5-4.4,1.9c0.9,0.2,1.3,0.6,1.8,1.1c0.5,0.5,1.1,1.2,2.5,1.5c3.2,0.4,4.7-1.4,5.4-2.3
			c0-0.1,0-0.1-0.1-0.1c0.9,0.9,1.8,1.7,2.8,2.5c0.3,0.2,0.5,0.4,0.8,0.7c-0.2-0.1-0.5-0.2-0.7-0.2c-1-0.2-2,0-3,0.3
			c-2,0.7-3.7,2-4.1,2.5c1.8,0.1,1.9,1.5,4.7,2.1c3.3,0,4.6-2.1,5.1-3.1c0,0,0-0.1-0.1-0.1c1.2,0.9,2.5,1.8,3.9,2.6
			c-0.2-0.1-0.4-0.1-0.7-0.1c-1-0.1-2,0.3-3,0.7c-1.9,0.9-3.4,2.5-3.8,3c1.8-0.1,2.1,1.3,5,1.5c1.6-0.2,2.8-0.9,3.5-1.7
			c0.7-0.8,1.1-1.6,1.3-2.1c0,0-0.1-0.1-0.1-0.1c0.9,0.5,1.9,1,2.8,1.4c0.5,0.2,0.9,0.4,1.4,0.6c-0.2,0-0.5,0-0.7,0
			c-0.5,0.1-1,0.2-1.5,0.4c-0.5,0.2-0.9,0.4-1.4,0.7c-1.7,1.2-3.1,3-3.4,3.6c0.9-0.2,1.5,0.1,2.2,0.4c0.7,0.3,1.6,0.6,3.1,0.4
			c1.7-0.4,2.6-1.2,3.2-2.1c0.6-0.9,0.9-1.7,1-2.3c0,0-0.1-0.1-0.1-0.1c0.2,0.1,0.3,0.1,0.5,0.2c1.3,0.5,2.5,0.9,3.8,1.3
			c-1.3,0-2.5,0.7-3.5,1.5c-1.6,1.4-2.7,3.4-3,4.1c1.7-0.7,2.3,0.8,5.3,0.2c3.2-1.2,3.7-3.8,3.8-4.9c0,0-0.1-0.1-0.1-0.1
			c0.8,0.2,1.7,0.4,2.5,0.6c0.7,0.2,1.3,0.3,2,0.4c-1.3,0.2-2.4,1-3.3,1.9c-1.5,1.6-2.4,3.7-2.6,4.4c1.8-0.9,2.6,0.6,5.5-0.4
			c3.1-1.7,3.2-4.3,3.2-5.5c0,0-0.1,0-0.2-0.1c1.5,0.2,3.1,0.4,4.6,0.4c1.2,0.1,2.2,0.3,3,0.8c-1.1,0.7-1.9,1.6-2.7,2.4
			c-0.5,0.5-1,1-1.5,1.5l0.3,0.5c0.5-0.4,1-0.9,1.5-1.5c0.9-0.9,1.8-1.9,3-2.6c1.2,0.7,2.1,1.6,3,2.6c0.5,0.5,1,1,1.5,1.5l0.3-0.5
			c-0.5-0.4-1-0.9-1.5-1.4c-0.8-0.8-1.6-1.7-2.7-2.4c0.8-0.4,1.8-0.7,3.1-0.8c1.6-0.1,3.1-0.2,4.6-0.4c-0.1,0-0.1,0-0.2,0.1
			c0,1.2,0.1,3.8,3.2,5.5c2.9,0.9,3.8-0.5,5.5,0.4c-0.2-0.7-1.1-2.8-2.6-4.4c-0.9-1-2-1.8-3.3-1.9c0.7-0.1,1.3-0.2,2-0.4
			c0.8-0.2,1.7-0.4,2.5-0.6c0,0-0.1,0.1-0.1,0.1c0.2,1.1,0.6,3.7,3.8,4.9c2.9,0.6,3.5-0.9,5.3-0.2c-0.3-0.7-1.4-2.7-3-4.1
			c-1-0.9-2.2-1.5-3.5-1.5c1.3-0.4,2.6-0.9,3.8-1.3c0.2-0.1,0.3-0.1,0.5-0.2c0,0-0.1,0.1-0.1,0.1c0.1,0.6,0.4,1.4,1,2.3
			c0.6,0.9,1.6,1.7,3.2,2.1c1.5,0.1,2.4-0.2,3.1-0.4c0.7-0.3,1.3-0.6,2.2-0.4c-0.3-0.6-1.7-2.4-3.4-3.6c-0.4-0.3-0.9-0.5-1.4-0.7
			c-0.5-0.2-1-0.3-1.5-0.4c-0.2,0-0.4,0-0.7,0c0.4-0.2,0.9-0.4,1.4-0.6c0.9-0.5,1.9-0.9,2.8-1.4c0,0-0.1,0.1-0.1,0.1
			c0.2,0.5,0.6,1.3,1.3,2.1c0.7,0.7,1.8,1.5,3.5,1.7c2.9-0.2,3.2-1.6,5-1.5c-0.4-0.6-2-2.1-3.8-3c-0.9-0.5-1.9-0.8-2.9-0.7
			c-0.2,0-0.4,0.1-0.7,0.1c1.3-0.8,2.6-1.7,3.8-2.6c0,0,0,0.1-0.1,0.1c0.6,1,1.8,3,5.1,3.1c2.8-0.6,2.9-2,4.7-2.1
			c-0.5-0.5-2.2-1.8-4.1-2.5c-1-0.3-2-0.5-2.9-0.3c-0.2,0.1-0.4,0.1-0.7,0.2c0.3-0.2,0.6-0.4,0.8-0.7c1-0.8,1.9-1.7,2.8-2.5
			c0,0-0.1,0.1-0.1,0.1c0.7,0.9,2.1,2.7,5.4,2.3c1.4-0.4,1.9-1,2.5-1.5c0.5-0.5,0.9-0.9,1.8-1.1c-0.5-0.4-2.4-1.5-4.3-1.9
			c-1-0.2-2-0.2-2.9,0.1c-0.2,0.1-0.4,0.2-0.7,0.3c1.1-1.2,2.2-2.4,3.2-3.6c0,0,0,0.1-0.1,0.1c0.8,0.8,2.4,2.4,5.5,1.6
			c1.3-0.6,1.8-1.2,2.2-1.8c0.4-0.6,0.8-1,1.6-1.3c-0.6-0.4-2.5-1.2-4.5-1.3c-1-0.1-1.9,0-2.8,0.4c-0.2,0.1-0.3,0.2-0.5,0.3
			c0.9-1.3,1.8-2.6,2.6-3.9c0,0,0,0,0,0.1c0.8,0.6,2.7,2,5.6,0.9c1.1-0.7,1.6-1.4,2-2c0.3-0.6,0.6-1.1,1.4-1.4
			c-0.6-0.3-2.6-0.9-4.5-0.8c-0.9,0.1-1.9,0.2-2.7,0.8c-0.2,0.1-0.3,0.2-0.4,0.3c0.8-1.4,1.5-2.8,2.1-4.2c0,0,0,0,0,0.1
			c0.4,0.3,1.2,0.7,2.1,0.8c0.9,0.2,2.2,0.1,3.4-0.7c2-1.7,1.5-2.9,2.9-3.7c-0.6-0.2-2.6-0.6-4.5-0.2c-0.9,0.2-1.9,0.5-2.6,1.1
			c-0.2,0.1-0.3,0.3-0.4,0.4c0.6-1.5,1.1-3,1.6-4.5v0c0.9,0.4,3,1.3,5.4-0.4c1.8-1.8,1-3,2.4-4c-0.6-0.1-2.6-0.2-4.4,0.3
			c-0.9,0.2-1.8,0.7-2.4,1.3c-0.1,0.2-0.2,0.3-0.4,0.5c0.2-0.7,0.4-1.4,0.5-2c0.2-0.9,0.4-1.8,0.6-2.7v0c0.9,0.3,3,0.9,5.2-1.1
			c0.8-1,0.9-1.8,1.1-2.4s0.2-1.2,0.8-1.7C128.3,72.1,126.3,72.2,124.7,72.9L124.7,72.9L124.7,72.9z"/>
		
			<linearGradient id="SVGID_00000013156575447802511250000006892459671569617855_" gradientUnits="userSpaceOnUse" x1="102.8576" y1="-117.5829" x2="-105.6323" y2="53.3471" gradientTransform="matrix(1 0 0 1 0 99.98)">
			<stop  offset="0" style="stop-color:#6D6E6F"/>
			<stop  offset="0.9976" style="stop-color:#090506"/>
		</linearGradient>
		<path style="fill:url(#SVGID_00000013156575447802511250000006892459671569617855_);" d="M55.6,17.9c0.8,1.8,1.5,3.2,0.7,5
			c6.2,0.2,10.8,0.2,17,0c-0.8-1.8,0-3.2,0.8-5c3.4-2.2,4.2-4.6,4.4-6.1c0.2-2-0.6-3.9-2.2-5.1c-1.4-1-3.1-1.2-4.8-0.6
			c0,0-0.1,0-0.1,0c-1.3-0.7-3-0.7-4.4-0.2c-0.1,0-0.2,0.1-0.2,0.1c-0.4-0.2-0.9-0.3-1.3-0.3l0-0.1c0.2-0.6,0.8-1.2,1.4-1.5L67.3,4
			c0.5-0.3,0.5-0.7,0-1L67,2.9c-0.5-0.3-1.2-1-1.4-1.5l-0.4-0.9c-0.2-0.6-0.6-0.6-0.8,0L64,1.3c-0.2,0.6-0.8,1.2-1.4,1.5L62.3,3
			c-0.5,0.3-0.5,0.7,0,1l0.3,0.2c0.5,0.3,1.2,1,1.4,1.5l0,0.1c-0.5,0-0.9,0.1-1.3,0.3c-0.1,0-0.2-0.1-0.2-0.1
			c-1.4-0.6-3-0.5-4.4,0.2c0,0,0,0-0.1,0c-1.6-0.6-3.4-0.4-4.8,0.6c-1.6,1.1-2.4,3.1-2.2,5.1C51.3,13.3,52.2,15.7,55.6,17.9
			L55.6,17.9L55.6,17.9z M75.6,7.8c1.2,0.9,1.8,2.4,1.7,3.9c-0.3,2.2-2.1,4.3-5.1,5.9c-0.8,0-1.6,0-2.3-0.1c0.6-0.8,1.4-1.7,2.4-2.8
			c1.4-1.6,2-3.8,1.7-5.6c-0.2-0.8-0.5-1.5-1-2.1C73.8,7,74.8,7.2,75.6,7.8z M70.9,7.3c0.9,0.5,1.5,1.2,1.7,2.2
			c0.3,1.4-0.3,3.2-1.4,4.5c-1.3,1.5-2.3,2.7-3,3.6c-0.4,0-0.8,0-1.2,0C69.8,10,68.7,7.9,67.9,7C68.9,6.7,70,6.8,70.9,7.3
			C70.9,7.3,70.9,7.3,70.9,7.3z M62.9,7.6L62.9,7.6L62.9,7.6c0.3-0.4,0.7-0.5,1.3-0.6c0.2,0,0.4,0,0.6,0c0.1,0,0.1,0,0.2,0
			c0.2,0,0.4,0,0.6,0c0.5,0.1,0.9,0.2,1.2,0.5l0,0.1l0.1,0.1c0.5,0.6,1.8,2-1.2,9.8H64C61.1,9.7,62.4,8.2,62.9,7.6L62.9,7.6
			L62.9,7.6z M57,9.4c0.2-1,0.8-1.7,1.7-2.2s2-0.5,3-0.2c-0.8,0.9-1.8,3,0.9,10.5c-0.4,0-0.8,0-1.3,0c-0.7-0.9-1.7-2.1-3-3.6
			C57.3,12.6,56.7,10.8,57,9.4L57,9.4L57,9.4z M54,7.7c0.8-0.6,1.8-0.8,2.8-0.6c-0.5,0.6-0.9,1.2-1,2.1c-0.4,1.8,0.3,4,1.7,5.6
			c1,1.1,1.7,2,2.4,2.8c-0.8,0-1.5,0-2.3,0.1c-3-1.6-4.8-3.7-5.1-5.9C52.2,10.1,52.8,8.6,54,7.7z"/>
		
			<linearGradient id="SVGID_00000069364322102419635200000012862912107454472102_" gradientUnits="userSpaceOnUse" x1="106.6619" y1="-112.9477" x2="-101.8281" y2="57.9823" gradientTransform="matrix(1 0 0 1 0 99.98)">
			<stop  offset="0" style="stop-color:#6D6E6F"/>
			<stop  offset="0.9976" style="stop-color:#090506"/>
		</linearGradient>
		<path style="fill:url(#SVGID_00000069364322102419635200000012862912107454472102_);" d="M35.5,40.8c0.3,0.3,0.7,0.8,0.9,1.1
			c0.6-0.3,1.2-0.7,1.8-1.1v0.8H44v-0.8c0.6,0.4,1.2,0.8,1.8,1.1c0.2-0.4,0.6-0.9,0.9-1.2c-1.8-0.8-3.7-2.2-5-4h-1.4
			C39.3,38,37.5,39.8,35.5,40.8L35.5,40.8L35.5,40.8z M41,38c0.6,0.8,1.4,1.6,2.4,2.4h-4.7C39.6,39.6,40.4,38.7,41,38z"/>
		
			<linearGradient id="SVGID_00000085212788469564780720000005822139654839898006_" gradientUnits="userSpaceOnUse" x1="108.7627" y1="-110.3767" x2="-99.7273" y2="60.5433" gradientTransform="matrix(1 0 0 1 0 99.98)">
			<stop  offset="0" style="stop-color:#6D6E6F"/>
			<stop  offset="0.9976" style="stop-color:#090506"/>
		</linearGradient>
		<path style="fill:url(#SVGID_00000085212788469564780720000005822139654839898006_);" d="M37.4,47.5h1.4v-0.4h4.6v0.4h1.4v-4.8
			h-7.4L37.4,47.5L37.4,47.5L37.4,47.5z M38.7,43.9h4.6v1.9h-4.6V43.9z"/>
		
			<linearGradient id="SVGID_00000060026576344253104110000003151893072724903350_" gradientUnits="userSpaceOnUse" x1="112.1812" y1="-106.2085" x2="-96.3087" y2="64.7115" gradientTransform="matrix(1 0 0 1 0 99.98)">
			<stop  offset="0" style="stop-color:#6D6E6F"/>
			<stop  offset="0.9976" style="stop-color:#090506"/>
		</linearGradient>
		<path style="fill:url(#SVGID_00000060026576344253104110000003151893072724903350_);" d="M48,45.5c0.4-0.6,0.8-1.5,1.2-2.4v4.4
			h1.3v-5.4c0.3,0.4,0.5,0.8,0.6,1.1l0.1-0.2c0.2,0.3,0.5,0.7,0.6,0.9c0.2-0.1,0.4-0.2,0.6-0.2v3.7h1.3v-0.4h2.4v0.4h1.3v-3.8
			l0.2,0.1c0.2-0.3,0.6-0.9,0.8-1.2c-1-0.3-1.9-0.7-2.6-1.3c0.8-0.9,1.4-1.9,1.8-3.1l-0.9-0.4l-0.2,0h-1.9c0.1-0.3,0.3-0.6,0.4-0.9
			l-1.3-0.4c-0.4,1.1-1.1,2.2-2,3V39h-1.3v-2.4h-1.3V39h-1.5v1.3H49c-0.3,1.4-1,3-1.7,3.9C47.5,44.5,47.8,45.1,48,45.5L48,45.5
			L48,45.5z M56.1,45.9h-2.4v-1.6h2.4V45.9z M56.4,43.1h-2.7c0.5-0.3,0.9-0.6,1.3-1C55.4,42.5,55.9,42.9,56.4,43.1L56.4,43.1z
			 M54,39h1.9c-0.3,0.5-0.6,1-1,1.4c-0.4-0.4-0.7-0.9-1-1.3L54,39L54,39L54,39z M50.5,40.3h1c0.3,0.2,0.7,0.6,0.8,0.8
			c0.3-0.3,0.6-0.6,0.9-0.9c0.3,0.4,0.5,0.8,0.9,1.1c-0.8,0.6-1.6,1.1-2.6,1.5l0.4-0.5c-0.2-0.3-1.1-1.3-1.4-1.6L50.5,40.3
			L50.5,40.3z"/>
		
			<linearGradient id="SVGID_00000125584869668986957030000014698161556830424758_" gradientUnits="userSpaceOnUse" x1="117.1194" y1="-100.1908" x2="-91.3706" y2="70.7292" gradientTransform="matrix(1 0 0 1 0 99.98)">
			<stop  offset="0" style="stop-color:#6D6E6F"/>
			<stop  offset="0.9976" style="stop-color:#090506"/>
		</linearGradient>
		<path style="fill:url(#SVGID_00000125584869668986957030000014698161556830424758_);" d="M64.1,36.6v1.9H60v9h1.4v-3.3
			c0.3,0.3,0.8,0.8,1,1c1.3-0.8,2-1.7,2.5-2.7c0.8,0.8,1.7,1.8,2.2,2.4l1.1-0.9c-0.6-0.8-1.9-2-2.9-2.9c0.1-0.5,0.1-0.9,0.2-1.3h2.7
			v6c0,0.2-0.1,0.3-0.3,0.3c-0.2,0-1,0-1.7,0c0.2,0.4,0.4,1,0.4,1.4c1,0,1.8,0,2.3-0.2c0.5-0.2,0.6-0.6,0.6-1.3v-7.4h-4.1v-1.9
			L64.1,36.6L64.1,36.6z M61.4,44.2v-4.3h2.7C64,41.3,63.6,43,61.4,44.2z"/>
		
			<linearGradient id="SVGID_00000051376370010162739580000007584424760843730102_" gradientUnits="userSpaceOnUse" x1="122.7427" y1="-93.3266" x2="-85.7472" y2="77.6033" gradientTransform="matrix(1 0 0 1 0 99.98)">
			<stop  offset="0" style="stop-color:#6D6E6F"/>
			<stop  offset="0.9976" style="stop-color:#090506"/>
		</linearGradient>
		<path style="fill:url(#SVGID_00000051376370010162739580000007584424760843730102_);" d="M77.4,45.9v-1.7h3.2v-1.3h-3.2v-1.5h2.5
			v-1.3h-6.4v1.3H76v4.1c-0.7-0.3-1.2-0.9-1.6-1.8c0.1-0.5,0.2-1,0.3-1.5l-1.4-0.1c-0.2,2-0.8,3.6-2,4.5c0.3,0.2,0.9,0.7,1.1,0.9
			c0.7-0.6,1.2-1.3,1.6-2.2c1.1,1.7,2.7,2,4.8,2h2.9c0.1-0.4,0.3-1.1,0.5-1.4c-0.8,0-2.7,0-3.3,0C78.3,46,77.8,46,77.4,45.9
			L77.4,45.9L77.4,45.9z"/>
		
			<linearGradient id="SVGID_00000146501513008539749590000008824025446440905605_" gradientUnits="userSpaceOnUse" x1="120.209" y1="-96.4113" x2="-88.271" y2="74.5088" gradientTransform="matrix(1 0 0 1 0 99.98)">
			<stop  offset="0" style="stop-color:#6D6E6F"/>
			<stop  offset="0.9976" style="stop-color:#090506"/>
		</linearGradient>
		<polygon style="fill:url(#SVGID_00000146501513008539749590000008824025446440905605_);" points="77.4,36.6 75.9,36.6 75.9,37.8 
			71.7,37.8 71.7,40.7 73.1,40.7 73.1,39.1 80.2,39.1 80.2,40.7 81.7,40.7 81.7,37.8 77.4,37.8 		"/>
		
			<linearGradient id="SVGID_00000078733157396989772150000006834316847200330139_" gradientUnits="userSpaceOnUse" x1="126.8421" y1="-88.3274" x2="-81.6479" y2="82.6026" gradientTransform="matrix(1 0 0 1 0 99.98)">
			<stop  offset="0" style="stop-color:#6D6E6F"/>
			<stop  offset="0.9976" style="stop-color:#090506"/>
		</linearGradient>
		<path style="fill:url(#SVGID_00000078733157396989772150000006834316847200330139_);" d="M90.8,40.6l1,0.5
			c0.5-0.4,1.2-0.9,1.8-1.4l-1.2-0.6C91.9,39.6,91.3,40.2,90.8,40.6L90.8,40.6L90.8,40.6z"/>
		
			<linearGradient id="SVGID_00000113317873670993045300000010365056751500856473_" gradientUnits="userSpaceOnUse" x1="127.7099" y1="-87.2701" x2="-80.7801" y2="83.6599" gradientTransform="matrix(1 0 0 1 0 99.98)">
			<stop  offset="0" style="stop-color:#6D6E6F"/>
			<stop  offset="0.9976" style="stop-color:#090506"/>
		</linearGradient>
		<polygon style="fill:url(#SVGID_00000113317873670993045300000010365056751500856473_);" points="89.3,47.5 89.3,45.4 93.8,45.4 
			93.8,44.1 89.3,44.1 89.3,43.4 87.8,43.4 87.8,44.1 83.4,44.1 83.4,45.4 87.8,45.4 87.8,47.5 		"/>
		
			<linearGradient id="SVGID_00000018946001789571913450000012867775283459340464_" gradientUnits="userSpaceOnUse" x1="125.6016" y1="-89.838" x2="-82.8884" y2="81.0819" gradientTransform="matrix(1 0 0 1 0 99.98)">
			<stop  offset="0" style="stop-color:#6D6E6F"/>
			<stop  offset="0.9976" style="stop-color:#090506"/>
		</linearGradient>
		<path style="fill:url(#SVGID_00000018946001789571913450000012867775283459340464_);" d="M86.4,42.3l-0.2-0.9
			c-1.1,0.4-2.2,0.8-2.9,1.1l0.7,1.1c0.6-0.3,1.4-0.6,2.1-1l0.1,0.8c1.1-0.1,2.5-0.2,3.9-0.3c0.1,0.2,0.2,0.4,0.2,0.6l1.1-0.5
			c-0.1-0.2-0.2-0.5-0.4-0.8c0.7,0.4,1.5,0.9,1.8,1.3l1-0.8c-0.6-0.5-1.6-1.1-2.4-1.5L90.7,42c-0.2-0.3-0.4-0.6-0.6-0.8l-1,0.4
			c0.1,0.2,0.3,0.4,0.4,0.6l-1.2,0.1c0.8-0.7,1.5-1.5,2.2-2.3l-1.1-0.5c-0.3,0.4-0.7,0.9-1.1,1.4c-0.2-0.1-0.4-0.3-0.6-0.4
			c0.3-0.4,0.7-0.9,1.1-1.3L88.6,39h4.8v-1.2h-4.2v-1.1h-1.4v1.1h-4.1V39h3.8c-0.2,0.3-0.3,0.6-0.6,0.9l-0.3-0.2l-0.5,0.7
			c-0.4-0.4-1.1-0.8-1.7-1.1L83.6,40c0.6,0.3,1.4,0.9,1.8,1.3l0.8-0.7c0.5,0.3,1.1,0.7,1.5,1.1c-0.2,0.2-0.4,0.4-0.7,0.7L86.4,42.3
			L86.4,42.3L86.4,42.3z"/>
		
			<linearGradient id="SVGID_00000129164598888092653790000005147373990776542884_" gradientUnits="userSpaceOnUse" x1="118.829" y1="-98.1012" x2="-89.661" y2="72.8188" gradientTransform="matrix(1 0 0 1 0 99.98)">
			<stop  offset="0" style="stop-color:#6D6E6F"/>
			<stop  offset="0.9976" style="stop-color:#090506"/>
		</linearGradient>
		<polygon style="fill:url(#SVGID_00000129164598888092653790000005147373990776542884_);" points="43.3,57.6 43.3,61.7 42,61.7 
			42,62.9 51.9,62.9 51.9,61.7 47.8,61.7 47.8,59.3 50.9,59.3 50.9,58.1 47.8,58.1 47.8,55.6 46.3,55.6 46.3,61.7 44.7,61.7 
			44.7,57.6 		"/>
		
			<linearGradient id="SVGID_00000150075428232059904460000014001918069599820426_" gradientUnits="userSpaceOnUse" x1="116.7781" y1="-100.6023" x2="-91.7019" y2="70.3276" gradientTransform="matrix(1 0 0 1 0 99.98)">
			<stop  offset="0" style="stop-color:#6D6E6F"/>
			<stop  offset="0.9976" style="stop-color:#090506"/>
		</linearGradient>
		<path style="fill:url(#SVGID_00000150075428232059904460000014001918069599820426_);" d="M47.6,52.3h-1.4
			c-0.9,1.5-2.8,3.3-4.8,4.4c0.3,0.3,0.7,0.8,0.9,1.1c1.9-1.1,3.7-2.7,4.7-4.1c1,1.4,3,3.1,4.8,4.1c0.3-0.4,0.6-0.9,0.9-1.2
			C50.7,55.7,48.8,54.1,47.6,52.3C47.6,52.3,47.6,52.3,47.6,52.3z"/>
		
			<linearGradient id="SVGID_00000114068691753282001470000006317502142429242798_" gradientUnits="userSpaceOnUse" x1="122.282" y1="-93.8975" x2="-86.2079" y2="77.0325" gradientTransform="matrix(1 0 0 1 0 99.98)">
			<stop  offset="0" style="stop-color:#6D6E6F"/>
			<stop  offset="0.9976" style="stop-color:#090506"/>
		</linearGradient>
		<path style="fill:url(#SVGID_00000114068691753282001470000006317502142429242798_);" d="M58.2,61.2v2h1.4v-2.1
			c1.1,0.9,2.5,1.6,3.9,2c0.2-0.4,0.6-1,0.9-1.3c-1.3-0.2-2.7-0.7-3.7-1.3h3.4v-1.1h-4.5v-0.5H63v-1h-3.5v-0.5h4v-1.1h-2.3
			c0.2-0.3,0.4-0.6,0.5-0.9H64v-1.1h-1.5c0.3-0.4,0.6-0.9,0.9-1.5L62,52.4c-0.2,0.5-0.5,1.2-0.7,1.7l0.4,0.1h-1v-1.9h-1.3v1.9h-0.9
			v-1.9h-1.3v1.9h-1.1l0.6-0.2c-0.2-0.5-0.5-1.1-0.9-1.6l-1.2,0.4c0.3,0.4,0.6,1,0.7,1.5h-1.6v1.1h2.4l-0.1,0
			c0.2,0.3,0.3,0.6,0.4,0.9h-2.2v1.1h3.9v0.5h-3.4v1h3.4v0.5h-4.5v1.1H57c-1,0.6-2.4,1.1-3.7,1.4c0.3,0.3,0.7,0.8,0.9,1.2
			C55.6,62.7,57.1,62.1,58.2,61.2C58.2,61.2,58.2,61.2,58.2,61.2z M57.7,56.3l0.2,0c-0.1-0.3-0.2-0.6-0.4-0.9h2.8
			c-0.1,0.3-0.3,0.7-0.4,0.9H57.7z"/>
		
			<linearGradient id="SVGID_00000039818132520095421210000001240560760177810859_" gradientUnits="userSpaceOnUse" x1="126.5126" y1="-88.7268" x2="-81.9774" y2="82.1932" gradientTransform="matrix(1 0 0 1 0 99.98)">
			<stop  offset="0" style="stop-color:#6D6E6F"/>
			<stop  offset="0.9976" style="stop-color:#090506"/>
		</linearGradient>
		<path style="fill:url(#SVGID_00000039818132520095421210000001240560760177810859_);" d="M70,52.3c-0.8,1-2.2,1.9-4.3,2.6
			c0.3,0.2,0.7,0.7,0.9,1c0.5-0.2,0.9-0.4,1.3-0.6c0.5,0.3,1.1,0.7,1.6,1c-1.2,0.5-2.6,0.9-3.9,1.2c0.2,0.3,0.5,0.8,0.6,1.2
			c1.9-0.4,3.8-1.1,5.4-2.1c-0.9,1-2.5,2-4.8,2.7c0.3,0.2,0.7,0.8,0.8,1.1c0.6-0.2,1.2-0.4,1.7-0.7c0.6,0.3,1.3,0.8,1.7,1.2
			c-1.3,0.6-2.9,0.9-4.6,1.1c0.2,0.3,0.5,0.9,0.6,1.3c4-0.5,7.3-1.9,8.8-5.4l-0.9-0.5l-0.2,0.1h-2.1c0.3-0.2,0.5-0.5,0.7-0.8
			l-1.4-0.3c1-0.7,1.8-1.6,2.4-2.7l-0.9-0.5l-0.2,0.1h-2.3c0.2-0.2,0.4-0.4,0.6-0.6L70,52.3L70,52.3L70,52.3z M73.9,58.6
			c-0.4,0.6-1,1.2-1.6,1.6c-0.4-0.4-1.1-0.8-1.8-1.2c0.2-0.1,0.4-0.3,0.6-0.4H73.9z M72.3,54.4c-0.4,0.5-1,0.9-1.6,1.3
			c-0.4-0.3-1-0.7-1.6-1c0.2-0.1,0.3-0.2,0.4-0.3L72.3,54.4L72.3,54.4z"/>
		
			<linearGradient id="SVGID_00000049919633658369135770000005406087960082665349_" gradientUnits="userSpaceOnUse" x1="131.7427" y1="-82.3467" x2="-76.7373" y2="88.5833" gradientTransform="matrix(1 0 0 1 0 99.98)">
			<stop  offset="0" style="stop-color:#6D6E6F"/>
			<stop  offset="0.9976" style="stop-color:#090506"/>
		</linearGradient>
		<path style="fill:url(#SVGID_00000049919633658369135770000005406087960082665349_);" d="M81.7,52.5c-0.2,0.4-0.5,1.1-0.8,1.5
			l0.8,0.3h-0.9v-2h-1.3v2h-1l0.8-0.3c-0.1-0.4-0.4-1-0.7-1.5l-1,0.4c0.2,0.4,0.5,1,0.6,1.3h-0.9v1.1h1.8c-0.6,0.6-1.3,1.2-2.1,1.5
			c0.3,0.2,0.6,0.7,0.7,1c0.6-0.3,1.2-0.8,1.8-1.3v1.1l-0.3-0.1c-0.1,0.3-0.3,0.5-0.4,0.8h-1.7v1.1h1.1c-0.3,0.6-0.6,1.1-0.8,1.5
			l1.2,0.4l0.1-0.2c0.2,0.1,0.4,0.2,0.7,0.3c-0.6,0.3-1.3,0.5-2.2,0.6c0.2,0.3,0.5,0.8,0.6,1.2c1.2-0.3,2.2-0.6,2.9-1.1
			c0.5,0.3,0.9,0.6,1.2,0.9l0.5-0.5c0.2,0.3,0.4,0.6,0.4,0.8c1-0.5,1.8-1.1,2.5-1.9c0.5,0.8,1.2,1.4,2,1.8c0.2-0.4,0.6-0.9,1-1.2
			c-0.8-0.4-1.5-1.1-2.1-1.9c0.6-1.2,1-2.6,1.3-4.3h0.7v-1.3H85c0.2-0.6,0.3-1.3,0.4-1.9l-1.4-0.2c-0.3,2.1-0.8,4.1-1.8,5.2
			c0.3,0.2,0.7,0.5,0.9,0.8c0.1,0.1,0.1,0.1,0.2,0.2c0.2-0.3,0.4-0.5,0.5-0.8c0.2,0.8,0.5,1.6,0.8,2.3c-0.5,0.7-1.2,1.3-2.1,1.8
			c-0.3-0.2-0.6-0.4-1-0.6c0.3-0.5,0.5-1,0.6-1.7h0.9v-1.1h-2.8l0.3-0.6l-0.5-0.1h0.8v-1.4c0.4,0.4,0.9,0.8,1.2,1l0.7-1
			c-0.3-0.2-1.1-0.7-1.6-1H83v-1.1h-1.1c0.3-0.4,0.6-0.8,1-1.3L81.7,52.5L81.7,52.5L81.7,52.5z M86,55.7c-0.1,1-0.3,2-0.6,2.7
			c-0.3-0.8-0.6-1.8-0.7-2.7H86z M80.8,59.5c-0.1,0.4-0.3,0.8-0.4,1.1c-0.3-0.2-0.7-0.3-1-0.4l0.3-0.6
			C79.7,59.5,80.8,59.5,80.8,59.5z"/>
	</g>
</g>
<polygon points="31.7,100.1 36.9,100.1 36.9,81 47.9,100.1 53.5,100.1 53.5,73.2 48.3,73.2 48.3,91.9 37.6,73.2 31.7,73.2 "/>
<path d="M66.5,100.7c3.4,0,6-1,7.6-3.1c1.7-2.1,2.5-4.6,2.5-7.5s-0.8-5.3-2.5-7.4c-1.7-2.1-4.2-3.2-7.6-3.2s-6,1.1-7.6,3.2
	c-1.7,2.1-2.5,4.6-2.5,7.4s0.8,5.4,2.5,7.5C60.6,99.7,63.1,100.7,66.5,100.7z M63,85.6c0.8-1.1,2-1.6,3.5-1.6s2.7,0.5,3.5,1.6
	s1.2,2.6,1.2,4.6s-0.4,3.5-1.2,4.6s-2,1.6-3.5,1.6s-2.7-0.5-3.5-1.6s-1.2-2.6-1.2-4.6S62.2,86.6,63,85.6z"/>
<rect x="78.8" y="94.6" width="5.5" height="5.4"/>
<path d="M96.5,100.1V73.7h-4.3c0,0.2-0.1,0.6-0.2,1.1c-0.2,0.8-0.6,1.4-1,1.9c-0.7,0.7-1.5,1.2-2.5,1.4c-0.7,0.2-1.8,0.3-3.4,0.3
	v3.5h6.2v18.2C91.1,100.1,96.5,100.1,96.5,100.1z"/>
</svg>
