<?xml version="1.0" encoding="utf-8"?>
<!-- Generator: Adobe Illustrator 27.0.1, SVG Export Plug-In . SVG Version: 6.00 Build 0)  -->
<svg version="1.1" id="_レイヤー_2" xmlns="http://www.w3.org/2000/svg" xmlns:xlink="http://www.w3.org/1999/xlink" x="0px"
	 y="0px" viewBox="0 0 129.1 130.2" style="enable-background:new 0 0 129.1 130.2;" xml:space="preserve">
<style type="text/css">
	.st0{fill:url(#SVGID_1_);}
	.st1{fill:url(#SVGID_00000065767009135041340480000014387800971231502509_);}
	.st2{fill:url(#SVGID_00000004543927822544802400000009975747868874316430_);}
	.st3{fill:url(#SVGID_00000098200714508789022950000007340780739232997530_);}
	.st4{fill:url(#SVGID_00000029724858431169284720000012259136010409759671_);}
	.st5{fill:url(#SVGID_00000076597988393521298720000010815993893651307143_);}
	.st6{fill:url(#SVGID_00000116918224212238615800000003342391298349905329_);}
	.st7{fill:url(#SVGID_00000098932820590672640690000001375157609365707697_);}
	.st8{fill:url(#SVGID_00000043445148041913030450000016751524949215181711_);}
	.st9{fill:url(#SVGID_00000032609047114035651070000010192570336027887778_);}
	.st10{fill:url(#SVGID_00000052090461374521875200000009044524572781950356_);}
	.st11{fill:url(#SVGID_00000133493134500778048260000011168086072557554313_);}
	.st12{fill:url(#SVGID_00000167389415719030704430000013389942403180991412_);}
	.st13{fill:url(#SVGID_00000145031641606309307310000008450007453024944045_);}
	.st14{fill:url(#SVGID_00000161605539837421248440000015701644699628127140_);}
	.st15{fill:url(#SVGID_00000010276875226607326790000012813376314831924608_);}
	.st16{fill:url(#SVGID_00000147190425327173384000000013497815922424928676_);}
</style>
<g>
	
		<linearGradient id="SVGID_1_" gradientUnits="userSpaceOnUse" x1="97.1881" y1="-84.8811" x2="-29.9719" y2="119.8089" gradientTransform="matrix(1 0 0 1 0 99.98)">
		<stop  offset="0" style="stop-color:#6D6E6F"/>
		<stop  offset="0.9976" style="stop-color:#090506"/>
	</linearGradient>
	<path class="st0" d="M124.7,72.9c-0.8,0.3-1.6,0.8-2.1,1.6c-0.1,0.2-0.2,0.3-0.3,0.5c0.2-1.6,0.4-3.2,0.6-4.8v0
		c1,0.2,3.1,0.5,4.9-1.7c0.6-1.1,0.8-1.8,0.8-2.5c0-0.7,0-1.2,0.5-1.8c-0.6,0-2.5,0.4-4,1.3c-0.8,0.4-1.5,1-1.9,1.8
		c-0.1,0.1-0.1,0.2-0.2,0.4c0.1-1.6,0-3.2-0.1-4.8c0.5,0,1.2,0,2.1-0.2s1.8-0.8,2.5-2c0.9-2.2-0.1-3,0.7-4.3
		c-0.6,0.1-2.3,0.7-3.8,1.8c-0.7,0.5-1.3,1.2-1.7,2c-0.1,0.1-0.1,0.3-0.1,0.5c-0.2-1.6-0.4-3.2-0.7-4.8c0.9-0.1,3-0.3,4.2-2.8
		c0.6-2.3-0.5-2.9,0.2-4.3c-0.6,0.2-2.2,1-3.5,2.2c-0.8,0.7-1.3,1.6-1.4,2.6c-0.4-1.6-0.8-3.2-1.3-4.8c0,0,0,0,0,0
		c0.9-0.2,2.9-0.6,3.8-3.2c0.4-2.3-0.8-2.7-0.3-4.2c-0.5,0.2-2.1,1.2-3.1,2.5c-0.6,0.8-1.1,1.7-1.1,2.7c-0.4-1-0.8-2-1.2-2.9
		c-0.2-0.6-0.5-1.1-0.8-1.7c0,0,0,0,0,0c0.8-0.3,2.8-1,3.2-3.5c0.1-2.3-1.1-2.6-0.8-4c-0.5,0.3-1.8,1.4-2.7,2.8
		c-0.5,0.8-0.9,1.8-0.8,2.7c-0.8-1.5-1.6-2.9-2.5-4.3c0.8-0.4,2.5-1.3,2.8-3.9c-0.2-2.2-1.4-2.3-1.3-3.8c-0.4,0.3-1.7,1.6-2.3,3.1
		c-0.4,0.9-0.6,1.8-0.4,2.8c-1-1.4-2-2.8-3-4.1c0.7-0.5,2.3-1.5,2.2-4.1c-0.2-1.1-0.6-1.6-0.9-2.1c-0.4-0.4-0.7-0.8-0.7-1.5
		c-0.4,0.4-1.4,1.7-1.9,3.2c-0.3,0.9-0.4,1.8-0.1,2.7c-1.1-1.3-2.3-2.5-3.5-3.6c0.3-0.3,0.8-0.7,1.2-1.4c0.4-0.7,0.7-1.6,0.4-2.8
		c-0.7-2-1.8-1.9-2-3.2c-0.3,0.4-1.2,1.9-1.5,3.4c-0.2,0.8-0.2,1.6,0.1,2.3c0,0.1,0.1,0.2,0.2,0.3c-1.3-1.1-2.6-2.2-3.9-3.2
		c0.6-0.6,1.7-2,1.1-4.3c-0.2-0.5-0.4-0.8-0.7-1.1c-0.2-0.3-0.5-0.4-0.7-0.6c-0.4-0.3-0.8-0.6-1-1.2c-0.3,0.4-0.9,1.9-1,3.4
		c-0.1,0.8,0.1,1.5,0.4,2.2c0.1,0.1,0.1,0.2,0.2,0.3c-1.1-0.8-2.2-1.5-3.3-2.1c0.1-0.9,0-2.3-1.7-3.2c-1.9-0.6-2.6,0.4-3.6-0.2
		c0,0.5,0.3,2,1.1,3c0.7,1,1.9,1.6,3.9,0.8c0.4,0.3,0.9,0.5,1.3,0.8c-0.8-0.1-1.6,0.2-2.2,0.6c-1.3,0.8-2.2,2.1-2.5,2.5
		c1.2-0.3,1.3,0.7,3.2,0.7c1.1-0.2,1.9-0.7,2.5-1.2c0.5-0.5,0.8-1,1-1.3c1.3,0.9,2.6,1.9,3.9,2.9c-0.8-0.2-1.6,0-2.3,0.3
		c-1.4,0.7-2.5,1.9-2.9,2.3c1.2-0.2,1.3,0.8,3.1,1c2.2-0.1,3.4-1.4,3.9-2.1c1.2,1.1,2.3,2.2,3.5,3.4c-0.1,0-0.1,0-0.2-0.1
		c-0.7-0.2-1.5-0.1-2.3,0.1c-1.5,0.5-2.8,1.5-3.2,1.9c1.3,0,1.1,1,3,1.4c2.2,0.2,3.6-1,4.2-1.6c1.1,1.2,2.1,2.4,3,3.7
		c-0.7-0.4-1.6-0.5-2.4-0.3c-1.6,0.3-3,1.3-3.5,1.6c1.4,0.1,1,1.1,2.9,1.8c2.2,0.4,3.8-0.5,4.4-1.2c0.9,1.3,1.7,2.6,2.5,4
		c0,0-0.1-0.1-0.1-0.1c-0.7-0.4-1.5-0.5-2.3-0.4c-1.6,0.1-3.2,0.9-3.7,1.2c0.7,0.1,0.9,0.5,1.2,0.8c0.3,0.4,0.7,0.8,1.5,1.3
		c2.2,0.8,3.9-0.1,4.6-0.6c0.6,1.2,1.2,2.4,1.7,3.6c0.1,0.2,0.2,0.4,0.3,0.6c-0.1,0-0.1-0.1-0.2-0.1c-0.7-0.5-1.5-0.7-2.3-0.8
		c-1.7-0.1-3.3,0.5-3.9,0.7c1.3,0.4,0.7,1.4,2.5,2.5c2.2,1,3.9,0.4,4.8,0c0.5,1.5,1,2.9,1.4,4.4c-0.6-0.7-1.4-1.1-2.3-1.2
		c-1.7-0.3-3.5,0.1-4.1,0.3c0.6,0.3,0.8,0.7,1,1.1c0.2,0.5,0.4,1,1.2,1.7c2.1,1.3,3.9,0.9,4.9,0.5c0.3,1.5,0.6,3,0.9,4.5
		c0-0.1-0.1-0.1-0.1-0.2c-0.5-0.7-1.3-1.1-2.2-1.3c-1.7-0.5-3.5-0.3-4.1-0.2c0.6,0.4,0.7,0.8,0.8,1.3c0.2,0.5,0.3,1.1,1,1.9
		c1.9,1.6,3.9,1.4,4.9,1.2c0,0.3,0.1,0.5,0.1,0.8c0.1,1.2,0.2,2.5,0.2,3.8c0-0.1-0.1-0.2-0.1-0.3c-0.4-0.7-1.2-1.3-2-1.6
		c-1.6-0.7-3.5-0.8-4.1-0.8c1.1,0.9,0.2,1.7,1.4,3.4c1.7,1.8,3.8,1.9,4.8,1.8c-0.1,1.5-0.2,3-0.3,4.5c-0.3-0.9-1-1.7-1.8-2.2
		c-1.6-0.9-3.5-1.3-4.1-1.3c1.1,1.1,0,1.7,1,3.7c0.8,1.1,1.7,1.7,2.5,2.1c0.8,0.3,1.5,0.4,2,0.4c-0.2,1.5-0.5,2.9-0.9,4.4
		c-0.2-1-0.8-1.8-1.6-2.4c-1.4-1.1-3.3-1.7-4-1.8c0.9,1.2-0.2,1.8,0.6,3.8c1.3,2.3,3.3,2.9,4.4,3c-0.4,1.4-0.8,2.8-1.3,4.2
		c0-0.1,0-0.2,0-0.3c-0.2-0.9-0.7-1.7-1.4-2.4c-1.3-1.3-3.2-2.1-3.8-2.3c0.4,0.7,0.3,1.1,0.1,1.6c-0.1,0.6-0.2,1.2,0,2.3
		c1,2.5,3,3.3,4,3.6c-0.6,1.4-1.2,2.7-1.8,4c0.1-1.1-0.4-2.1-1.1-2.9c-1.2-1.5-2.9-2.5-3.5-2.8c0.6,1.4-0.7,1.7-0.3,4
		c0.7,2.6,2.6,3.7,3.7,4.1c-0.3,0.5-0.6,1-0.8,1.5c-0.5,0.8-1,1.5-1.5,2.3c0-0.1,0-0.3,0.1-0.4c0.1-0.9-0.2-1.9-0.8-2.7
		c-1-1.6-2.7-2.9-3.3-3.2c0.2,0.8,0,1.2-0.2,1.7c-0.3,0.5-0.6,1.1-0.6,2.3c0.4,2.8,2.2,4.1,3.2,4.6c-0.9,1.2-1.8,2.3-2.7,3.4
		c0-0.1,0.1-0.2,0.1-0.4c0.2-0.9,0-1.9-0.4-2.8c-0.8-1.8-2.4-3.3-2.9-3.7c0.1,0.8-0.1,1.2-0.4,1.7c-0.3,0.5-0.7,1-0.9,2.2
		c0.1,1.5,0.5,2.6,1,3.4c0.5,0.8,1.1,1.3,1.6,1.7c-1,1-2,2-3.1,3c0.5-1,0.4-2.1,0.1-3.2c-0.6-1.9-2-3.6-2.4-4.1
		c0.1,1.6-1.2,1.4-1.8,3.7c-0.3,2.8,1.1,4.7,2,5.5c-1.1,0.9-2.2,1.7-3.4,2.5c0.1-0.1,0.1-0.2,0.2-0.3c0.4-0.9,0.5-1.9,0.3-2.9
		c-0.3-2-1.5-3.9-1.9-4.4c-0.1,0.8-0.4,1.1-0.9,1.5s-0.9,0.9-1.4,2c-0.7,2.8,0.5,4.9,1.2,5.8c-0.2,0.1-0.3,0.2-0.5,0.3
		c-1.1,0.6-2.1,1.2-3.2,1.7c0.8-0.9,1-2.1,1-3.2c-0.1-2-1-4.1-1.3-4.7c-0.4,1.6-1.6,1-2.8,3.2c-1.1,2.7-0.2,5,0.4,6
		c-0.8,0.3-1.6,0.7-2.4,1c-0.5,0.2-1,0.4-1.5,0.6c0.9-0.8,1.3-2,1.4-3.2c0.2-2.1-0.4-4.3-0.7-5c-0.5,1.6-1.8,0.9-3.4,3
		c-1.4,2.7-0.7,5.1-0.2,6.1c-1.3,0.4-2.7,0.8-4,1.1c1-0.7,1.5-1.9,1.8-3.1c0.4-2.1,0-4.4-0.2-5.1c-0.8,1.6-1.9,0.7-3.6,2.6
		c-1.7,2.5-1.3,5-0.9,6.2c-2.2,0.4-4.4,0.6-6.6,0.8c-1.5,0.1-2.6,0.5-3.6,1c-1-0.5-2.1-0.9-3.6-1c-2.2-0.1-4.4-0.4-6.6-0.8
		c0.4-1.2,0.8-3.6-0.9-6.2c-1.7-1.9-2.8-1-3.6-2.6c-0.2,0.7-0.6,3-0.2,5.1c0.2,1.2,0.8,2.3,1.8,3.1c-1.3-0.3-2.7-0.7-4-1.1
		c0.5-1.1,1.3-3.4-0.2-6.1c-1.6-2.1-2.8-1.4-3.4-3c-0.3,0.7-0.9,2.9-0.7,5c0.1,1.2,0.5,2.4,1.4,3.2c-0.5-0.2-1-0.4-1.5-0.6
		c-0.8-0.3-1.6-0.6-2.4-1c0.6-1,1.5-3.3,0.5-6c-1.2-2.2-2.4-1.6-2.8-3.2c-0.4,0.6-1.3,2.7-1.3,4.7c0,1.1,0.2,2.3,1,3.2
		c-1.1-0.6-2.2-1.1-3.2-1.7c-0.2-0.1-0.3-0.2-0.5-0.3c0.7-0.9,1.9-3,1.2-5.8c-0.5-1.1-1-1.6-1.4-2c-0.4-0.4-0.8-0.7-0.9-1.5
		c-0.4,0.6-1.6,2.4-1.9,4.4c-0.2,1-0.1,2,0.3,2.9c0,0.1,0.1,0.2,0.2,0.3c-1.2-0.8-2.3-1.6-3.4-2.5c0.8-0.8,2.2-2.6,2-5.5
		c-0.6-2.3-1.9-2.1-1.8-3.7c-0.5,0.5-1.9,2.2-2.5,4.1c-0.4,1.1-0.4,2.2,0.1,3.2C25,109,24,108,23,107c0.4-0.3,1.1-0.9,1.6-1.7
		c0.5-0.8,1-1.9,1-3.4c-0.1-1.2-0.5-1.8-0.9-2.2c-0.3-0.5-0.6-0.9-0.4-1.7c-0.5,0.4-2.1,1.9-2.9,3.7c-0.4,0.9-0.6,1.9-0.4,2.8
		c0,0.1,0.1,0.2,0.1,0.4c-1-1.1-1.9-2.2-2.7-3.4c1-0.5,2.8-1.9,3.2-4.6c0-1.2-0.3-1.8-0.6-2.3c-0.3-0.5-0.5-0.9-0.2-1.7
		c-0.6,0.3-2.3,1.6-3.3,3.2c-0.5,0.8-0.8,1.7-0.8,2.7c0,0.1,0,0.3,0,0.4c-0.5-0.8-1-1.5-1.5-2.3c-0.3-0.5-0.6-1-0.9-1.5
		c1-0.4,2.9-1.5,3.7-4.1c0.3-2.3-0.9-2.6-0.3-4c-0.6,0.3-2.4,1.3-3.5,2.8C13.5,90.9,13,92,13.1,93c-0.7-1.3-1.3-2.7-1.8-4
		c1-0.3,3-1.1,4-3.6c0.2-1.1,0.1-1.8,0-2.3c-0.1-0.5-0.2-1,0.1-1.6c-0.6,0.2-2.5,1-3.8,2.3c-0.7,0.7-1.2,1.4-1.4,2.4
		c0,0.1,0,0.2,0,0.3c-0.5-1.4-0.9-2.8-1.3-4.2c1-0.2,3.1-0.7,4.4-3c0.7-2.1-0.3-2.6,0.6-3.8c-0.6,0.1-2.5,0.7-4,1.8
		c-0.8,0.6-1.4,1.4-1.6,2.4c-0.3-1.4-0.6-2.9-0.9-4.4c0.5,0,1.2-0.1,2-0.4c0.8-0.3,1.7-1,2.5-2.1c1-2-0.1-2.6,1-3.7
		c-0.6,0.1-2.6,0.4-4.1,1.3C8,70.8,7.3,71.6,7,72.5c-0.2-1.5-0.3-3-0.3-4.5c1,0.1,3.1,0,4.7-1.8c1.3-1.8,0.4-2.5,1.4-3.4
		c-0.6,0-2.5,0-4.1,0.8c-0.8,0.4-1.5,0.9-2,1.6c-0.1,0.1-0.1,0.2-0.1,0.3c0-1.3,0.1-2.5,0.2-3.8c0-0.3,0.1-0.5,0.1-0.8
		c1,0.2,3,0.4,4.9-1.2c0.7-0.8,0.9-1.4,1-1.9c0.1-0.5,0.2-0.9,0.8-1.3c-0.6-0.1-2.4-0.3-4.1,0.2c-0.8,0.2-1.6,0.7-2.2,1.3
		c0,0.1-0.1,0.1-0.1,0.2c0.2-1.5,0.5-3,0.9-4.5C9.1,54,11,54.4,13,53.1c0.8-0.7,1-1.2,1.2-1.7c0.2-0.5,0.4-0.8,1-1.1
		c-0.6-0.2-2.4-0.6-4.1-0.3c-0.9,0.2-1.8,0.5-2.3,1.2c0.4-1.5,0.9-3,1.4-4.4c0.9,0.5,2.6,1.1,4.8,0c1.7-1.1,1.2-2.1,2.5-2.5
		c-0.5-0.2-2.2-0.8-3.9-0.7c-0.8,0-1.6,0.3-2.3,0.8c-0.1,0-0.1,0.1-0.1,0.1c0.1-0.2,0.2-0.4,0.3-0.6c0.5-1.2,1.1-2.4,1.7-3.6
		c0.8,0.5,2.4,1.4,4.6,0.6c0.9-0.5,1.2-0.9,1.5-1.3s0.5-0.7,1.2-0.8c-0.5-0.3-2.1-1.1-3.7-1.2c-0.8-0.1-1.6,0-2.4,0.4
		c0,0-0.1,0.1-0.1,0.1c0.8-1.3,1.6-2.7,2.5-4c0.7,0.6,2.2,1.6,4.5,1.2c1.9-0.7,1.5-1.8,2.9-1.8c-0.4-0.3-1.9-1.3-3.5-1.6
		c-0.8-0.2-1.7-0.1-2.5,0.3c1-1.3,2-2.5,3-3.7c0.6,0.7,2,1.8,4.2,1.6c1.9-0.4,1.8-1.5,3-1.4c-0.4-0.4-1.7-1.5-3.2-1.9
		c-0.7-0.2-1.5-0.3-2.3-0.1c0,0-0.1,0-0.2,0.1c1.1-1.2,2.3-2.3,3.5-3.4c0.5,0.7,1.7,2,3.9,2.1c1.8-0.3,1.9-1.2,3.1-1
		c-0.3-0.4-1.5-1.6-2.9-2.3c-0.8-0.4-1.6-0.5-2.3-0.3c1.2-1,2.5-2,3.9-2.9c0.2,0.4,0.5,0.9,1,1.3c0.6,0.5,1.3,1,2.5,1.2
		c1.9,0,2-1,3.2-0.7c-0.3-0.4-1.2-1.7-2.5-2.5c-0.7-0.4-1.4-0.7-2.2-0.6c0.4-0.3,0.9-0.5,1.3-0.8c2,0.7,3.1,0.1,3.9-0.9
		c0.7-1.1,1-2.5,1-3c-1,0.6-1.7-0.3-3.6,0.2c-1.7,0.8-1.8,2.3-1.7,3.2c-1.1,0.7-2.2,1.4-3.3,2.1c0.1-0.1,0.1-0.2,0.2-0.3
		c0.3-0.7,0.4-1.4,0.4-2.2c-0.1-1.5-0.8-3-1-3.4c-0.2,0.6-0.5,0.9-1,1.2c-0.2,0.2-0.5,0.3-0.7,0.6c-0.2,0.3-0.5,0.6-0.7,1.1
		c-0.6,2.3,0.5,3.7,1.1,4.3c-1.4,1-2.7,2.1-3.9,3.2c0.1-0.1,0.1-0.2,0.2-0.3c0.3-0.7,0.2-1.5,0.1-2.3c-0.3-1.5-1.1-3-1.5-3.4
		c-0.2,1.4-1.3,1.2-2,3.2c-0.2,1.2,0.1,2.1,0.5,2.8c0.4,0.7,0.9,1.1,1.2,1.4c-1.2,1.2-2.4,2.4-3.5,3.6c0.3-0.9,0.2-1.8-0.1-2.7
		c-0.5-1.5-1.5-2.9-1.9-3.2c0,0.7-0.3,1-0.7,1.5c-0.4,0.4-0.7,1-1,2.1c-0.1,2.5,1.5,3.6,2.2,4.1c-1.1,1.3-2.1,2.7-3,4.1
		c0.2-0.9,0.1-1.9-0.4-2.8c-0.7-1.5-1.9-2.7-2.3-3.1c0.1,1.5-1.1,1.6-1.3,3.8c0.3,2.6,1.9,3.5,2.8,3.9c-0.9,1.4-1.7,2.8-2.5,4.3
		c0.1-1-0.2-1.9-0.8-2.7c-0.9-1.4-2.2-2.5-2.7-2.8c0.3,1.4-0.9,1.8-0.8,4c0.5,2.6,2.4,3.3,3.2,3.5c0,0,0,0,0,0
		c-0.3,0.6-0.5,1.1-0.8,1.7c-0.4,1-0.8,1.9-1.2,2.9c0-1-0.5-1.9-1.1-2.7c-1-1.3-2.6-2.3-3.1-2.5c0.5,1.4-0.8,1.8-0.3,4.2
		c0.9,2.6,2.8,3,3.7,3.2l0,0c-0.5,1.6-1,3.2-1.3,4.8c-0.1-1-0.7-1.9-1.4-2.6c-1.2-1.2-2.9-2-3.5-2.2c0.7,1.4-0.5,2,0.2,4.3
		c1.3,2.5,3.3,2.7,4.2,2.8c-0.3,1.6-0.6,3.2-0.7,4.8c0-0.2-0.1-0.3-0.1-0.5c-0.3-0.8-0.9-1.4-1.7-2c-1.4-1.1-3.2-1.7-3.8-1.8
		c0.8,1.3-0.2,2.1,0.8,4.3c0.7,1.2,1.7,1.8,2.5,2c0.8,0.3,1.6,0.3,2.1,0.2c-0.1,1.6-0.1,3.2-0.1,4.8C6.1,67.5,6,67.4,6,67.3
		c-0.5-0.8-1.2-1.3-1.9-1.8c-1.5-0.9-3.4-1.2-4-1.3c0.5,0.6,0.5,1.2,0.5,1.8c0,0.7,0.1,1.4,0.8,2.5c1.9,2.2,4,1.8,4.9,1.7v0
		c0.1,1.6,0.3,3.2,0.6,4.8c-0.1-0.2-0.2-0.3-0.3-0.5c-0.5-0.7-1.3-1.2-2.1-1.6c-1.7-0.7-3.6-0.8-4.3-0.8c0.6,0.6,0.7,1.1,0.8,1.7
		c0.1,0.6,0.2,1.4,1.1,2.4c2.2,1.9,4.3,1.4,5.2,1.1v0c0.2,0.9,0.4,1.8,0.6,2.7c0.2,0.7,0.3,1.4,0.5,2c-0.1-0.2-0.2-0.3-0.4-0.5
		c-0.6-0.7-1.5-1.1-2.4-1.3c-1.8-0.5-3.8-0.4-4.4-0.3c1.4,1,0.6,2.1,2.4,4c2.5,1.7,4.5,0.9,5.4,0.4v0c0.5,1.5,1,3,1.6,4.5
		c-0.1-0.1-0.2-0.3-0.4-0.4c-0.7-0.6-1.6-0.9-2.6-1.1c-1.9-0.3-3.8,0-4.5,0.2c1.4,0.9,0.9,2.1,2.9,3.7c1.3,0.8,2.5,0.8,3.4,0.7
		c0.9-0.2,1.7-0.6,2.1-0.8c0,0,0,0,0-0.1c0.6,1.4,1.4,2.8,2.1,4.2c-0.1-0.1-0.3-0.2-0.4-0.3c-0.8-0.5-1.8-0.7-2.7-0.8
		c-1.9-0.1-3.9,0.5-4.5,0.8c0.8,0.3,1.1,0.8,1.4,1.4c0.4,0.6,0.8,1.3,2,2c2.8,1.2,4.7-0.2,5.6-0.9c0,0,0,0,0-0.1
		c0.8,1.3,1.7,2.6,2.6,3.9c-0.2-0.1-0.3-0.2-0.5-0.3c-0.9-0.4-1.8-0.5-2.8-0.4c-2,0.1-3.9,1-4.5,1.3c0.9,0.3,1.2,0.7,1.6,1.3
		c0.4,0.6,1,1.2,2.2,1.8c3.1,0.8,4.7-0.8,5.5-1.6c0-0.1,0-0.1,0-0.1c1,1.3,2.1,2.5,3.2,3.6c-0.2-0.1-0.4-0.2-0.6-0.3
		c-0.9-0.3-1.9-0.3-2.9-0.1c-2,0.4-3.8,1.5-4.4,1.9c0.9,0.2,1.3,0.6,1.8,1.1c0.5,0.5,1.1,1.2,2.5,1.5c3.2,0.4,4.7-1.4,5.4-2.3
		c0-0.1,0-0.1-0.1-0.1c0.9,0.9,1.8,1.7,2.8,2.5c0.3,0.2,0.5,0.4,0.8,0.7c-0.2-0.1-0.5-0.2-0.7-0.2c-1-0.2-2,0-3,0.3
		c-2,0.7-3.7,2-4.1,2.5c1.8,0.1,1.9,1.5,4.7,2.1c3.3,0,4.6-2.1,5.1-3.1c0,0,0-0.1-0.1-0.1c1.2,0.9,2.5,1.8,3.9,2.6
		c-0.2-0.1-0.4-0.1-0.7-0.1c-1-0.1-2,0.3-3,0.7c-1.9,0.9-3.4,2.5-3.8,3c1.8-0.1,2.1,1.3,5,1.5c1.6-0.2,2.8-0.9,3.5-1.7
		c0.7-0.8,1.1-1.6,1.3-2.1c0,0-0.1-0.1-0.1-0.1c0.9,0.5,1.9,1,2.8,1.4c0.5,0.2,0.9,0.4,1.4,0.6c-0.2,0-0.5,0-0.7,0
		c-0.5,0.1-1,0.2-1.5,0.4c-0.5,0.2-0.9,0.4-1.4,0.7c-1.7,1.2-3.1,3-3.4,3.6c0.9-0.2,1.5,0.1,2.2,0.4c0.7,0.3,1.6,0.6,3.1,0.4
		c1.7-0.4,2.6-1.2,3.2-2.1c0.6-0.9,0.9-1.7,1-2.3c0,0-0.1-0.1-0.1-0.1c0.2,0.1,0.3,0.1,0.5,0.2c1.3,0.5,2.5,0.9,3.8,1.3
		c-1.3,0-2.5,0.7-3.5,1.5c-1.6,1.4-2.7,3.4-3,4.1c1.7-0.7,2.3,0.8,5.3,0.2c3.2-1.2,3.7-3.8,3.8-4.9c0,0-0.1-0.1-0.1-0.1
		c0.8,0.2,1.7,0.4,2.5,0.6c0.7,0.2,1.3,0.3,2,0.4c-1.3,0.2-2.4,1-3.3,1.9c-1.5,1.6-2.4,3.7-2.6,4.4c1.8-0.9,2.6,0.6,5.5-0.4
		c3.1-1.7,3.2-4.3,3.2-5.5c0,0-0.1,0-0.2-0.1c1.5,0.2,3.1,0.4,4.6,0.4c1.2,0.1,2.2,0.3,3,0.8c-1.1,0.7-1.9,1.6-2.7,2.4
		c-0.5,0.5-1,1-1.5,1.5l0.3,0.5c0.5-0.4,1-0.9,1.5-1.5c0.9-0.9,1.8-1.9,3-2.6c1.2,0.7,2.1,1.6,3,2.6c0.5,0.5,1,1,1.5,1.5l0.3-0.5
		c-0.5-0.4-1-0.9-1.5-1.4c-0.8-0.8-1.6-1.7-2.7-2.4c0.8-0.4,1.8-0.7,3.1-0.8c1.6-0.1,3.1-0.2,4.6-0.4c-0.1,0-0.1,0-0.2,0.1
		c0,1.2,0.1,3.8,3.2,5.5c2.9,0.9,3.8-0.5,5.5,0.4c-0.2-0.7-1.1-2.8-2.6-4.4c-0.9-1-2-1.8-3.3-1.9c0.7-0.1,1.3-0.2,2-0.4
		c0.8-0.2,1.7-0.4,2.5-0.6c0,0-0.1,0.1-0.1,0.1c0.2,1.1,0.6,3.7,3.8,4.9c2.9,0.6,3.5-0.9,5.3-0.2c-0.3-0.7-1.4-2.7-3-4.1
		c-1-0.9-2.2-1.5-3.5-1.5c1.3-0.4,2.6-0.9,3.8-1.3c0.2-0.1,0.3-0.1,0.5-0.2l-0.1,0.1c0.1,0.6,0.4,1.4,1,2.3c0.6,0.9,1.6,1.7,3.2,2.1
		c1.5,0.1,2.4-0.2,3.1-0.4c0.7-0.3,1.3-0.6,2.2-0.4c-0.3-0.6-1.7-2.4-3.4-3.6c-0.4-0.3-0.9-0.5-1.4-0.7c-0.5-0.2-1-0.3-1.5-0.4
		c-0.2,0-0.4,0-0.7,0c0.4-0.2,0.9-0.4,1.4-0.6c0.9-0.5,1.9-0.9,2.8-1.4c0,0-0.1,0.1-0.1,0.1c0.2,0.5,0.6,1.3,1.3,2.1
		c0.7,0.7,1.8,1.5,3.5,1.7c2.9-0.2,3.2-1.6,5-1.5c-0.4-0.6-2-2.1-3.8-3c-0.9-0.5-1.9-0.8-2.9-0.7c-0.2,0-0.4,0.1-0.7,0.1
		c1.3-0.8,2.6-1.7,3.8-2.6c0,0,0,0.1-0.1,0.1c0.6,1,1.8,3,5.1,3.1c2.8-0.6,2.9-2,4.7-2.1c-0.5-0.5-2.2-1.8-4.1-2.5
		c-1-0.3-2-0.5-2.9-0.3c-0.2,0.1-0.4,0.1-0.7,0.2c0.3-0.2,0.6-0.4,0.8-0.7c1-0.8,1.9-1.7,2.8-2.5c0,0-0.1,0.1-0.1,0.1
		c0.7,0.9,2.1,2.7,5.4,2.3c1.4-0.4,1.9-1,2.5-1.5c0.5-0.5,0.9-0.9,1.8-1.1c-0.5-0.4-2.4-1.5-4.3-1.9c-1-0.2-2-0.2-2.9,0.1
		c-0.2,0.1-0.4,0.2-0.7,0.3c1.1-1.2,2.2-2.4,3.2-3.6c0,0,0,0.1-0.1,0.1c0.8,0.8,2.4,2.4,5.5,1.6c1.3-0.6,1.8-1.2,2.2-1.8
		c0.4-0.6,0.8-1,1.6-1.3c-0.6-0.4-2.5-1.2-4.5-1.3c-1-0.1-1.9,0-2.8,0.4c-0.2,0.1-0.3,0.2-0.5,0.3c0.9-1.3,1.8-2.6,2.6-3.9
		c0,0,0,0,0,0.1c0.8,0.6,2.7,2,5.6,0.9c1.1-0.7,1.6-1.4,2-2c0.3-0.6,0.6-1.1,1.4-1.4c-0.6-0.3-2.6-0.9-4.5-0.8
		c-0.9,0.1-1.9,0.2-2.7,0.8c-0.2,0.1-0.3,0.2-0.4,0.3c0.8-1.4,1.5-2.8,2.1-4.2c0,0,0,0,0,0.1c0.4,0.3,1.2,0.7,2.1,0.8
		c0.9,0.2,2.2,0.1,3.4-0.7c2-1.7,1.5-2.9,2.9-3.7c-0.6-0.2-2.6-0.6-4.5-0.2c-0.9,0.2-1.9,0.5-2.6,1.1c-0.2,0.1-0.3,0.3-0.4,0.4
		c0.6-1.5,1.1-3,1.6-4.5v0c0.9,0.4,3,1.3,5.4-0.4c1.8-1.8,1-3,2.4-4c-0.6-0.1-2.6-0.2-4.4,0.3c-0.9,0.2-1.8,0.7-2.4,1.3
		c-0.1,0.2-0.2,0.3-0.4,0.5c0.2-0.7,0.4-1.4,0.5-2c0.2-0.9,0.4-1.8,0.6-2.7v0c0.9,0.3,3,0.9,5.2-1.1c0.8-1,0.9-1.8,1.1-2.4
		c0.1-0.6,0.2-1.2,0.8-1.7C128.3,72.1,126.3,72.2,124.7,72.9L124.7,72.9L124.7,72.9z"/>
	
		<linearGradient id="SVGID_00000130620085136122376630000009430529791656656828_" gradientUnits="userSpaceOnUse" x1="72.4553" y1="-100.2429" x2="-54.7047" y2="104.4471" gradientTransform="matrix(1 0 0 1 0 99.98)">
		<stop  offset="0" style="stop-color:#6D6E6F"/>
		<stop  offset="0.9976" style="stop-color:#090506"/>
	</linearGradient>
	<path style="fill:url(#SVGID_00000130620085136122376630000009430529791656656828_);" d="M55.6,17.9c0.8,1.8,1.5,3.2,0.7,5
		c6.2,0.2,10.8,0.2,17,0c-0.8-1.8,0-3.2,0.8-5c3.4-2.2,4.2-4.6,4.4-6.1c0.2-2-0.6-3.9-2.2-5.1c-1.4-1-3.1-1.2-4.8-0.6
		c0,0-0.1,0-0.1,0c-1.3-0.7-3-0.7-4.4-0.2c-0.1,0-0.2,0.1-0.2,0.1c-0.4-0.2-0.9-0.3-1.3-0.3l0-0.1c0.2-0.6,0.8-1.2,1.4-1.5L67.3,4
		c0.5-0.3,0.5-0.7,0-1L67,2.9c-0.5-0.3-1.2-1-1.4-1.5l-0.4-0.9c-0.2-0.6-0.6-0.6-0.8,0L64,1.3c-0.2,0.6-0.8,1.2-1.4,1.5L62.3,3
		c-0.5,0.3-0.5,0.7,0,1l0.3,0.2c0.5,0.3,1.2,1,1.4,1.5l0,0.1c-0.5,0-0.9,0.1-1.3,0.3c-0.1,0-0.2-0.1-0.2-0.1c-1.4-0.6-3-0.5-4.4,0.2
		c0,0,0,0-0.1,0c-1.6-0.6-3.4-0.4-4.8,0.6c-1.6,1.1-2.4,3.1-2.2,5.1C51.3,13.3,52.2,15.7,55.6,17.9L55.6,17.9L55.6,17.9z M75.6,7.8
		c1.2,0.9,1.8,2.4,1.7,3.9c-0.3,2.2-2.1,4.3-5.1,5.9c-0.8,0-1.6,0-2.3-0.1c0.6-0.8,1.4-1.7,2.4-2.8c1.4-1.6,2-3.8,1.7-5.6
		c-0.2-0.8-0.5-1.5-1-2.1C73.8,7,74.8,7.2,75.6,7.8z M70.9,7.3c0.9,0.5,1.5,1.2,1.7,2.2c0.3,1.4-0.3,3.2-1.4,4.5
		c-1.3,1.5-2.3,2.7-3,3.6c-0.4,0-0.8,0-1.2,0C69.8,10,68.7,7.9,67.9,7C68.9,6.7,70,6.8,70.9,7.3L70.9,7.3L70.9,7.3z M62.9,7.6
		L62.9,7.6L62.9,7.6c0.3-0.4,0.7-0.5,1.3-0.6c0.2,0,0.4,0,0.6,0c0.1,0,0.1,0,0.2,0c0.2,0,0.4,0,0.6,0c0.5,0.1,0.9,0.2,1.2,0.5l0,0.1
		l0.1,0.1c0.5,0.6,1.8,2-1.2,9.8H64C61.1,9.7,62.4,8.2,62.9,7.6L62.9,7.6L62.9,7.6z M57,9.4c0.2-1,0.8-1.7,1.7-2.2s2-0.5,3-0.2
		c-0.8,0.9-1.8,3,0.9,10.5c-0.4,0-0.8,0-1.3,0c-0.7-0.9-1.7-2.1-3-3.6C57.3,12.6,56.7,10.8,57,9.4C57,9.4,57,9.4,57,9.4z M54,7.7
		c0.8-0.6,1.8-0.8,2.8-0.6c-0.5,0.6-0.9,1.2-1,2.1c-0.4,1.8,0.3,4,1.7,5.6c1,1.1,1.7,2,2.4,2.8c-0.8,0-1.5,0-2.3,0.1
		c-3-1.6-4.8-3.7-5.1-5.9C52.2,10.1,52.8,8.6,54,7.7z"/>
	
		<linearGradient id="SVGID_00000177484076897956136880000005977671519184736136_" gradientUnits="userSpaceOnUse" x1="64.9422" y1="-104.9087" x2="-62.2178" y2="99.7914" gradientTransform="matrix(1 0 0 1 0 99.98)">
		<stop  offset="0" style="stop-color:#6D6E6F"/>
		<stop  offset="0.9976" style="stop-color:#090506"/>
	</linearGradient>
	<path style="fill:url(#SVGID_00000177484076897956136880000005977671519184736136_);" d="M37.3,41.3c0.7-1.1,1.2-2.2,1.6-3.2
		c0.1-0.3,0.3-0.8,0.5-1l-1.8-0.6c-0.1,0.3-0.2,0.8-0.3,1.1c-0.3,0.9-0.7,1.8-1.3,2.8c-0.9-0.7-2.1-1.5-3.1-2.1l-1,1.2
		c1.2,0.7,2.3,1.5,3.1,2.2c-1.1,1.4-2.5,2.5-4.4,3.4l1.3,1.2c2-1.1,3.3-2.4,4.3-3.6c0.9,0.8,1.8,1.6,2.6,2.6l1.2-1.3
		C39.3,43.1,38.3,42.2,37.3,41.3L37.3,41.3L37.3,41.3z"/>
	
		<linearGradient id="SVGID_00000142855046882919669220000011960940075066299022_" gradientUnits="userSpaceOnUse" x1="72.6599" y1="-100.1201" x2="-54.5002" y2="104.5799" gradientTransform="matrix(1 0 0 1 0 99.98)">
		<stop  offset="0" style="stop-color:#6D6E6F"/>
		<stop  offset="0.9976" style="stop-color:#090506"/>
	</linearGradient>
	<path style="fill:url(#SVGID_00000142855046882919669220000011960940075066299022_);" d="M50.4,42.1c0.5,0,1.1,0,1.4,0.1v-1.8
		c-0.3,0-0.8,0.1-1.4,0.1h-6.3c-0.6,0-1.5,0-1.9-0.1v1.8c0.4,0,1.2-0.1,1.9-0.1H50.4z"/>
	
		<linearGradient id="SVGID_00000153685380411522611630000002231709645155833515_" gradientUnits="userSpaceOnUse" x1="80.9999" y1="-94.9401" x2="-46.1601" y2="109.7599" gradientTransform="matrix(1 0 0 1 0 99.98)">
		<stop  offset="0" style="stop-color:#6D6E6F"/>
		<stop  offset="0.9976" style="stop-color:#090506"/>
	</linearGradient>
	<path style="fill:url(#SVGID_00000153685380411522611630000002231709645155833515_);" d="M53.8,45.1l1.3,1.1
		c2.1-1.5,3.2-3.3,3.6-6.4h2.6c0,1.3-0.2,3.6-0.5,4.3c-0.1,0.3-0.3,0.4-0.7,0.4c-0.5,0-1.1-0.1-1.6-0.2l0.2,1.6
		c0.6,0,1.3,0.1,1.9,0.1c0.8,0,1.2-0.3,1.5-0.9c0.5-1.2,0.6-4.4,0.7-5.7c0-0.1,0-0.4,0.1-0.6l-1-0.5c-0.3,0-0.6,0.1-0.9,0.1h-2.2
		c0-0.3,0-0.7,0-1c0-0.3,0-0.8,0.1-1h-1.7c0,0.3,0.1,0.8,0.1,1.1c0,0.3,0,0.7,0,1h-1.7c-0.4,0-1,0-1.5-0.1v1.5c0.5,0,1.1,0,1.5,0
		h1.5c-0.3,1.8-0.8,3.1-1.9,4.2C54.8,44.5,54.3,44.8,53.8,45.1L53.8,45.1L53.8,45.1z"/>
	
		<linearGradient id="SVGID_00000090973083909078351610000011786515272097250438_" gradientUnits="userSpaceOnUse" x1="89.4887" y1="-89.6708" x2="-37.6713" y2="115.0292" gradientTransform="matrix(1 0 0 1 0 99.98)">
		<stop  offset="0" style="stop-color:#6D6E6F"/>
		<stop  offset="0.9976" style="stop-color:#090506"/>
	</linearGradient>
	<path style="fill:url(#SVGID_00000090973083909078351610000011786515272097250438_);" d="M75,42.1v-1.8c-0.3,0-0.8,0.1-1.4,0.1
		h-6.3c-0.6,0-1.5,0-1.9-0.1v1.8c0.4,0,1.2-0.1,1.9-0.1h6.3C74.2,42.1,74.8,42.1,75,42.1z"/>
	
		<linearGradient id="SVGID_00000124133343123422639610000018263843911746265789_" gradientUnits="userSpaceOnUse" x1="95.8087" y1="-85.7408" x2="-31.3514" y2="118.9592" gradientTransform="matrix(1 0 0 1 0 99.98)">
		<stop  offset="0" style="stop-color:#6D6E6F"/>
		<stop  offset="0.9976" style="stop-color:#090506"/>
	</linearGradient>
	<path style="fill:url(#SVGID_00000124133343123422639610000018263843911746265789_);" d="M76.7,38.1h1.9v0.6h-1.7V43h1.7v0.7h-2.1
		v1.2h2.1v1.8h1.3v-1.8h2v-1.2h-2V43h1.7v-4.2h-1.7v-0.6h1.8v-1.2h-1.8v-1.1h-1.3v1.1h-1.9V38.1z M78.7,42H78v-0.7h0.7V42z
		 M79.7,39.7h0.8v0.7h-0.8V39.7z M79.7,41.3h0.8V42h-0.8V41.3z M78.7,39.7v0.7H78v-0.7H78.7z"/>
	
		<linearGradient id="SVGID_00000058576550222650122380000004359945962133004473_" gradientUnits="userSpaceOnUse" x1="98.0693" y1="-84.3404" x2="-29.0907" y2="120.3596" gradientTransform="matrix(1 0 0 1 0 99.98)">
		<stop  offset="0" style="stop-color:#6D6E6F"/>
		<stop  offset="0.9976" style="stop-color:#090506"/>
	</linearGradient>
	
		<rect x="82.3" y="36.6" style="fill:url(#SVGID_00000058576550222650122380000004359945962133004473_);" width="4.6" height="1.3"/>
	
		<linearGradient id="SVGID_00000091702878482047687040000002234545541812875650_" gradientUnits="userSpaceOnUse" x1="100.6766" y1="-82.7121" x2="-26.4834" y2="121.9879" gradientTransform="matrix(1 0 0 1 0 99.98)">
		<stop  offset="0" style="stop-color:#6D6E6F"/>
		<stop  offset="0.9976" style="stop-color:#090506"/>
	</linearGradient>
	<path style="fill:url(#SVGID_00000091702878482047687040000002234545541812875650_);" d="M82.5,45l-1,0.1l0.3,1.3
		c1.2-0.1,2.8-0.2,4.3-0.4c0.1,0.2,0.1,0.5,0.1,0.7l1.3-0.5c-0.2-1-0.7-2.5-1.3-3.7L85,42.9c0.3,0.6,0.5,1.2,0.8,1.8l-1.9,0.1
		c0.3-1.1,0.6-2.4,0.9-3.7h2.6v-1.3h-5.5v1.3h1.4C83.1,42.5,82.8,43.9,82.5,45z"/>
	
		<linearGradient id="SVGID_00000056393508209836123140000001661562584424331147_" gradientUnits="userSpaceOnUse" x1="106.2273" y1="-79.2717" x2="-20.9327" y2="125.4283" gradientTransform="matrix(1 0 0 1 0 99.98)">
		<stop  offset="0" style="stop-color:#6D6E6F"/>
		<stop  offset="0.9976" style="stop-color:#090506"/>
	</linearGradient>
	<path style="fill:url(#SVGID_00000056393508209836123140000001661562584424331147_);" d="M88.1,43.9l0.2,1.3
		c0.7-0.1,1.5-0.3,2.3-0.5v2h1.2v-9.2h0.4v0.4h0.9l-0.7,0.2c0.1,0.4,0.2,1,0.3,1.4H92v1.1h4.1c0.1,1.3,0.2,2.5,0.3,3.5
		c-0.2,0.3-0.5,0.6-0.8,0.9V41h-3.2v4.9h1.1v-0.7h1.8c-0.3,0.2-0.5,0.4-0.8,0.6c0.2,0.2,0.6,0.7,0.8,0.9c0.6-0.4,1.1-0.8,1.5-1.4
		c0.3,0.8,0.7,1.3,1.2,1.3c0.4,0,0.9-0.4,1.2-2.3c-0.2-0.1-0.7-0.5-0.9-0.8c-0.1,0.9-0.1,1.5-0.3,1.5s-0.3-0.3-0.4-0.9
		c0.6-0.9,1-1.9,1.3-3l-1.1-0.2c-0.1,0.4-0.3,0.9-0.4,1.3c-0.1-0.5-0.1-1.1-0.1-1.7h1.8v-1.1h-1.8c0-0.8,0-1.6,0-2.5
		c0.4,0.5,0.8,1.2,0.9,1.7l1-0.5c-0.2-0.5-0.7-1.3-1.1-1.8l-0.8,0.4v-0.9H96c0,1.3,0,2.5,0.1,3.6h-0.9c0.1-0.4,0.3-0.9,0.5-1.4
		l-0.8-0.2h1v-1h-1.2v-1h-1.2v1h-1.1v-0.6h-4v1.2h0.4v6.3C88.5,43.9,88.3,43.9,88.1,43.9L88.1,43.9L88.1,43.9z M94.6,44.3h-1.1v-0.7
		h1.1V44.3z M94.6,42.7h-1.1V42h1.1V42.7z M94.6,37.9c-0.1,0.4-0.2,1-0.3,1.4l0.6,0.1h-1.7l0.5-0.1c0-0.4-0.1-1-0.3-1.4
		C93.4,37.9,94.6,37.9,94.6,37.9z M89.9,37.5h0.8v1.3h-0.8V37.5z M89.9,39.9h0.8v1.3h-0.8V39.9z M89.9,42.2h0.8v1.3l-0.8,0.1V42.2z"
		/>
	
		<linearGradient id="SVGID_00000049209117400683815940000017204063226680053379_" gradientUnits="userSpaceOnUse" x1="76.0284" y1="-98.021" x2="-51.1216" y2="106.679" gradientTransform="matrix(1 0 0 1 0 99.98)">
		<stop  offset="0" style="stop-color:#6D6E6F"/>
		<stop  offset="0.9976" style="stop-color:#090506"/>
	</linearGradient>
	<path style="fill:url(#SVGID_00000049209117400683815940000017204063226680053379_);" d="M39.4,52.2v1.9h-1.1l0.6-0.2
		c-0.2-0.5-0.5-1.1-0.9-1.6l-1.2,0.4c0.3,0.4,0.6,1,0.7,1.5H36v1.1h2.4l-0.1,0c0.2,0.3,0.3,0.6,0.4,0.9h-2.2v1.1h3.9v0.5h-3.4v1h3.4
		v0.5H36v1.1h3.3c-1,0.6-2.4,1.1-3.7,1.4c0.3,0.3,0.7,0.8,0.9,1.2c1.4-0.4,2.8-1,3.9-1.9v2h1.4v-2.1c1.1,0.9,2.5,1.6,3.9,2
		c0.2-0.4,0.6-1,0.9-1.3C45.3,61.4,44,61,43,60.4h3.4v-1.1h-4.5v-0.5h3.5v-1h-3.5v-0.5h4v-1.1h-2.3c0.2-0.3,0.4-0.6,0.5-0.9h2.2
		v-1.1h-1.5c0.3-0.4,0.6-0.9,0.9-1.5l-1.5-0.3c-0.2,0.5-0.5,1.2-0.7,1.7l0.4,0.1h-1v-1.9h-1.3v1.9h-0.9v-1.9
		C40.7,52.2,39.4,52.2,39.4,52.2z M42.6,55.2c-0.1,0.3-0.3,0.7-0.4,0.9H40l0.2,0c-0.1-0.3-0.2-0.6-0.4-0.9H42.6z"/>
	
		<linearGradient id="SVGID_00000042711874031665398240000016892526600606882984_" gradientUnits="userSpaceOnUse" x1="83.9102" y1="-93.1399" x2="-43.2498" y2="111.5601" gradientTransform="matrix(1 0 0 1 0 99.98)">
		<stop  offset="0" style="stop-color:#6D6E6F"/>
		<stop  offset="0.9976" style="stop-color:#090506"/>
	</linearGradient>
	<path style="fill:url(#SVGID_00000042711874031665398240000016892526600606882984_);" d="M54,63h1.5v-3.7c0.6,0.4,1.3,0.7,2,0.9
		c0.2-0.4,0.6-0.9,0.9-1.2c-1.2-0.3-2.3-0.9-3.2-1.6H57v-5h-8.3v5h1.8c-0.8,0.7-2,1.3-3.2,1.7c0.3,0.3,0.7,0.8,0.9,1.1
		c0.8-0.3,1.5-0.6,2.1-1.1v0.4c0,0.8-0.2,1.7-2.2,2.4c0.3,0.3,0.8,0.8,1,1.1c2.3-0.8,2.7-2.3,2.7-3.4v-0.8h-1c0.5-0.4,1-0.9,1.4-1.4
		h1.2c0.4,0.5,0.8,1,1.4,1.4H54L54,63L54,63L54,63z M52.1,56.4h-2v-0.8h2V56.4z M52.1,54.5h-2v-0.8h2V54.5z M53.5,53.6h2v0.8h-2
		V53.6z M53.5,56.4v-0.8h2v0.8H53.5z"/>
	
		<linearGradient id="SVGID_00000013161998096239269070000003351598656606385553_" gradientUnits="userSpaceOnUse" x1="92.8334" y1="-87.5879" x2="-34.3266" y2="117.1121" gradientTransform="matrix(1 0 0 1 0 99.98)">
		<stop  offset="0" style="stop-color:#6D6E6F"/>
		<stop  offset="0.9976" style="stop-color:#090506"/>
	</linearGradient>
	<path style="fill:url(#SVGID_00000013161998096239269070000003351598656606385553_);" d="M59.9,62.8h1.5v-0.9h6.2v0.9h1.5v-9.5
		h-9.2L59.9,62.8L59.9,62.8L59.9,62.8z M61.3,54.7h6.2v5.7h-6.2V54.7z"/>
	
		<linearGradient id="SVGID_00000030458840369856179810000017190511391512040351_" gradientUnits="userSpaceOnUse" x1="101.3422" y1="-82.2986" x2="-25.8178" y2="122.4014" gradientTransform="matrix(1 0 0 1 0 99.98)">
		<stop  offset="0" style="stop-color:#6D6E6F"/>
		<stop  offset="0.9976" style="stop-color:#090506"/>
	</linearGradient>
	<path style="fill:url(#SVGID_00000030458840369856179810000017190511391512040351_);" d="M78.8,62.3h1.7c0-0.3-0.1-1-0.1-1.4v-6
		c0-0.3,0-0.8,0-1.1c-0.2,0-0.7,0-1,0h-5.9c-0.4,0-1,0-1.4-0.1v1.6c0.3,0,1,0,1.4,0h5.2v4.8h-5.4c-0.5,0-1.1,0-1.5-0.1v1.7
		c0.4,0,1.1-0.1,1.5-0.1h5.3C78.8,61.9,78.8,62.1,78.8,62.3L78.8,62.3z"/>
	
		<linearGradient id="SVGID_00000083792209855105280480000010981407449334638264_" gradientUnits="userSpaceOnUse" x1="110.6897" y1="-76.4902" x2="-16.4703" y2="128.2098" gradientTransform="matrix(1 0 0 1 0 99.98)">
		<stop  offset="0" style="stop-color:#6D6E6F"/>
		<stop  offset="0.9976" style="stop-color:#090506"/>
	</linearGradient>
	<path style="fill:url(#SVGID_00000083792209855105280480000010981407449334638264_);" d="M91.3,61.1c-1.6-0.6-5.2-1.5-7.2-1.8
		l-0.6,1.5c1.9,0.3,5.6,1.1,7.1,1.7C90.7,62.6,91.3,61.1,91.3,61.1z"/>
	
		<linearGradient id="SVGID_00000047759726824811630430000005311589739551797402_" gradientUnits="userSpaceOnUse" x1="108.2505" y1="-78.0097" x2="-18.9095" y2="126.6803" gradientTransform="matrix(1 0 0 1 0 99.98)">
		<stop  offset="0" style="stop-color:#6D6E6F"/>
		<stop  offset="0.9976" style="stop-color:#090506"/>
	</linearGradient>
	<path style="fill:url(#SVGID_00000047759726824811630430000005311589739551797402_);" d="M91.6,54.3c-1.5-0.5-4.8-1.2-6.3-1.4
		l-0.6,1.4c1.6,0.2,4.9,1,6.3,1.5C91,55.7,91.6,54.3,91.6,54.3z"/>
	
		<linearGradient id="SVGID_00000078747087199601663490000013378555965200213395_" gradientUnits="userSpaceOnUse" x1="109.1881" y1="-77.4312" x2="-17.9719" y2="127.2688" gradientTransform="matrix(1 0 0 1 0 99.98)">
		<stop  offset="0" style="stop-color:#6D6E6F"/>
		<stop  offset="0.9976" style="stop-color:#090506"/>
	</linearGradient>
	<path style="fill:url(#SVGID_00000078747087199601663490000013378555965200213395_);" d="M90.3,58.9l0.6-1.5
		c-1.5-0.5-4.4-1.1-6.1-1.4l-0.5,1.4C85.9,57.7,88.9,58.4,90.3,58.9C90.2,58.9,90.3,58.9,90.3,58.9z"/>
</g>
<polygon points="47.5,89.8 36.9,71.1 31,71.1 31,98 36.2,98 36.2,78.9 47.2,98 52.8,98 52.8,71.1 47.5,71.1 "/>
<path d="M65.8,98.6c3.4,0,6-1,7.6-3.1c1.7-2.1,2.5-4.6,2.5-7.5s-0.8-5.3-2.5-7.4c-1.7-2.1-4.2-3.2-7.6-3.2s-6,1.1-7.6,3.2
	c-1.7,2.1-2.5,4.6-2.5,7.4s0.8,5.4,2.5,7.5C59.9,97.6,62.4,98.6,65.8,98.6z M62.3,83.5c0.8-1.1,2-1.6,3.5-1.6s2.7,0.5,3.5,1.6
	s1.2,2.6,1.2,4.6s-0.4,3.5-1.2,4.6s-2,1.6-3.5,1.6s-2.7-0.5-3.5-1.6S61.1,90,61.1,88S61.5,84.5,62.3,83.5z"/>
<rect x="78.1" y="92.5" width="5.5" height="5.4"/>
<path d="M95.8,98V71.5h-4.3c0,0.2-0.1,0.6-0.2,1.1c-0.2,0.8-0.6,1.4-1,1.9c-0.7,0.7-1.5,1.2-2.5,1.4c-0.7,0.2-1.8,0.3-3.4,0.3v3.5
	h6.2V98C90.4,98,95.8,98,95.8,98z"/>
</svg>